<svg xmlns="http://www.w3.org/2000/svg" width="180" height="199" viewBox="0 0 180 199"><rect width="100%" height="100%" fill="#DDDDDD"/><path fill="#999999" d="M37.825 105.275h2.99q.83 0 1.39-.2t.89-.53q.34-.33.49-.77t.15-.93q0-.52-.17-.93-.16-.41-.52-.7-.35-.3-.9-.45-.56-.15-1.34-.15h-2.98zm2.52-11.31h-2.52v4.6h2.35q1.52 0 2.3-.55.77-.55.77-1.75 0-1.24-.7-1.77-.71-.53-2.2-.53m-5.48-2.29h5.48q1.56 0 2.67.3t1.82.85 1.04 1.33.33 1.76q0 .56-.16 1.07-.17.51-.52.96-.34.44-.88.81-.53.36-1.27.61 3.28.74 3.28 3.55 0 1.01-.38 1.87-.39.85-1.13 1.47-.73.63-1.81.98t-2.46.35h-6.01zm20.02 12.99v-1.9q-1.18.06-1.98.21-.8.14-1.29.38-.48.23-.69.53-.21.31-.21.68 0 .71.42 1.02.43.31 1.11.31.84 0 1.45-.31.61-.3 1.19-.92m-5.74-5.92-.49-.87q1.95-1.78 4.69-1.78.99 0 1.77.32t1.32.9.82 1.38q.28.81.28 1.76v7.13h-1.23q-.39 0-.6-.12-.2-.11-.33-.46l-.24-.82q-.43.39-.83.68-.41.29-.85.49t-.94.3q-.5.11-1.11.11-.71 0-1.32-.2-.6-.19-1.04-.57-.44-.39-.68-.96-.25-.57-.25-1.33 0-.43.15-.85.14-.43.47-.81.32-.39.84-.73.51-.34 1.27-.59.75-.26 1.75-.42 1-.15 2.29-.19v-.66q0-1.13-.48-1.68-.49-.54-1.4-.54-.66 0-1.1.15-.43.16-.76.35t-.6.35q-.27.15-.6.15-.29 0-.48-.15-.2-.15-.32-.34m19.74-1.05-.71.99q-.12.16-.24.24-.11.09-.33.09-.21 0-.41-.13l-.47-.28q-.28-.16-.66-.29-.38-.12-.94-.12-.71 0-1.25.25-.54.26-.9.75-.36.48-.53 1.17-.18.69-.18 1.55 0 .91.19 1.61.2.71.56 1.18.36.48.88.73t1.16.25q.65 0 1.05-.16.41-.16.68-.35.28-.2.48-.36t.46-.16q.33 0 .49.26l.78.99q-.45.52-.98.88-.52.36-1.09.57-.57.22-1.17.31-.6.08-1.19.08-1.05 0-1.97-.39t-1.62-1.13q-.69-.75-1.09-1.84-.4-1.08-.4-2.47 0-1.24.35-2.3.36-1.06 1.06-1.84.69-.77 1.71-1.21t2.36-.44q1.26 0 2.21.41.95.4 1.71 1.16m1.81-6.46h2.71v9.37h.51q.27 0 .43-.08.16-.07.33-.29l2.8-3.46q.18-.23.39-.35.22-.13.56-.13h2.49l-3.51 4.2q-.38.49-.82.75.23.17.41.39.19.22.35.47l3.76 5.48h-2.45q-.32 0-.55-.1-.23-.11-.38-.38l-2.89-4.28q-.15-.26-.32-.33-.16-.08-.49-.08h-.62v5.17h-2.71zm28.45 12.6q.25 0 .43.19l1.17 1.26q-.97 1.2-2.38 1.84-1.42.64-3.4.64-1.77 0-3.18-.61-1.41-.6-2.42-1.68-1-1.08-1.53-2.58-.53-1.49-.53-3.26 0-1.8.57-3.29t1.61-2.56q1.04-1.08 2.48-1.68t3.19-.6q1.74 0 3.09.57 1.34.57 2.29 1.5l-.99 1.37q-.09.13-.23.23-.13.1-.38.1-.16 0-.34-.09-.17-.1-.38-.23-.21-.14-.49-.31-.27-.16-.63-.3-.37-.14-.85-.23-.47-.09-1.1-.09-1.07 0-1.95.38-.89.38-1.53 1.1-.63.72-.99 1.76-.35 1.04-.35 2.37 0 1.34.38 2.38.38 1.05 1.03 1.76.65.72 1.53 1.1t1.89.38q.61 0 1.09-.07.49-.06.91-.21.41-.14.78-.37.37-.22.73-.55.11-.1.23-.16t.25-.06m8.2-7.71q1.25 0 2.28.41 1.03.4 1.76 1.15t1.13 1.83q.39 1.07.39 2.4 0 1.35-.39 2.43-.4 1.07-1.13 1.83t-1.76 1.17q-1.03.4-2.28.4-1.27 0-2.3-.4-1.03-.41-1.77-1.17-.73-.76-1.13-1.83-.4-1.08-.4-2.43 0-1.33.4-2.4.4-1.08 1.13-1.83.74-.75 1.77-1.15 1.03-.41 2.3-.41m0 9.54q1.41 0 2.08-.95.68-.95.68-2.77 0-1.83-.68-2.79-.67-.95-2.08-.95-1.43 0-2.12.96t-.69 2.78q0 1.81.69 2.76.69.96 2.12.96m15.67-9.37h2.15l-4.48 11.29h-2.46l-4.48-11.29h2.24q.31 0 .52.15.2.14.27.36l2.17 6.03q.18.53.31 1.03.13.51.23 1.01.11-.5.24-1.01.14-.5.32-1.03l2.23-6.03q.07-.22.27-.36.2-.15.47-.15m5.73 4.35h5.13q0-.53-.15-1-.15-.46-.44-.82-.3-.35-.76-.55-.45-.2-1.06-.2-1.18 0-1.85.67-.68.67-.87 1.9m6.93 1.64h-6.98q.07.87.31 1.5t.64 1.04q.39.42.94.62.54.2 1.2.2t1.14-.15.83-.34q.36-.19.63-.34.27-.16.52-.16.35 0 .51.26l.78.99q-.45.52-1.01.88t-1.17.57q-.61.22-1.25.31-.63.08-1.22.08-1.18 0-2.19-.39t-1.76-1.15q-.75-.77-1.18-1.89-.43-1.13-.43-2.61 0-1.16.38-2.18.37-1.01 1.07-1.77.7-.75 1.7-1.19 1.01-.44 2.28-.44 1.06 0 1.97.34.9.34 1.55.99.65.66 1.01 1.61.37.95.37 2.17 0 .62-.13.83-.13.22-.51.22m5.08-5.3.16 1.27q.53-1.01 1.25-1.59.73-.57 1.72-.57.78 0 1.25.34l-.17 2.03q-.06.2-.16.28-.11.08-.28.08t-.49-.05q-.33-.06-.63-.06-.45 0-.81.14-.35.13-.63.38-.28.24-.49.6-.22.35-.41.8v6.95h-2.71v-11.29h1.59q.42 0 .59.15.16.15.22.54"/></svg>