<svg xmlns="http://www.w3.org/2000/svg" width="206" height="40" viewBox="0 0 206 40"><rect width="100%" height="100%" fill="#DDDDDD"/><path fill="#999999" d="M62.47 18.42h2.01q.74 0 1.29-.19.55-.18.92-.53.36-.34.54-.84.18-.49.18-1.1 0-.58-.18-1.05t-.53-.8q-.36-.33-.92-.51-.55-.17-1.3-.17h-2.01zm-2.69-7.27h4.7q1.45 0 2.51.34t1.75.95 1.03 1.46q.33.85.33 1.86 0 1.05-.35 1.93-.35.87-1.05 1.5t-1.75.98q-1.06.35-2.47.35h-2.01v5.09h-2.69zM77.2 22.96v-1.73q-1.07.05-1.81.18-.73.14-1.16.35-.44.21-.64.49-.18.28-.18.61 0 .65.38.93.39.28 1.01.28.75 0 1.31-.27.55-.28 1.09-.84m-5.22-5.39-.44-.79q1.76-1.62 4.26-1.62.9 0 1.61.3.71.29 1.2.81.48.53.74 1.26t.26 1.6v6.48h-1.13q-.35 0-.53-.1-.2-.11-.31-.43l-.21-.74q-.39.35-.77.61-.36.27-.77.45-.39.18-.85.28-.45.09-1 .09-.66 0-1.2-.17-.55-.18-.96-.53-.4-.35-.61-.87-.23-.52-.23-1.21 0-.39.14-.78.12-.38.42-.73.29-.35.76-.66.48-.31 1.16-.54t1.6-.38q.9-.14 2.08-.17v-.6q0-1.03-.45-1.53-.44-.49-1.27-.49-.6 0-.99.14-.4.14-.69.32l-.55.31q-.25.14-.55.14-.25 0-.43-.14-.18-.13-.29-.31m13.69 2.66q.46 0 .8-.12.34-.13.57-.35.22-.22.34-.53.11-.31.11-.68 0-.76-.45-1.21-.46-.44-1.37-.44-.9 0-1.36.44-.46.45-.46 1.21 0 .36.12.67.11.31.34.53.22.23.57.36.34.12.79.12m2.79 5.84q0-.3-.18-.49t-.49-.3q-.31-.1-.72-.15-.42-.05-.88-.08l-.96-.04q-.5-.02-.97-.08-.41.23-.66.54-.26.31-.26.72 0 .27.14.5.13.24.43.41.29.17.76.27.47.09 1.15.09.7 0 1.19-.1.5-.11.83-.29.32-.19.47-.44.15-.26.15-.56m-.49-10.37h2.95v.92q0 .44-.53.54l-.92.17q.21.53.21 1.16 0 .76-.3 1.37-.31.62-.85 1.05t-1.27.66q-.74.24-1.59.24-.29 0-.58-.03-.28-.03-.55-.08-.48.29-.48.65 0 .31.29.45.28.15.75.21t1.07.08q.6.01 1.23.06t1.23.17q.6.13 1.07.4t.76.73q.28.47.28 1.2 0 .68-.33 1.32-.34.64-.97 1.14-.64.5-1.56.81-.93.3-2.11.3-1.16 0-2.02-.22-.86-.23-1.43-.6-.57-.38-.85-.87t-.28-1.02q0-.72.44-1.2.43-.49 1.19-.78-.41-.21-.65-.56t-.24-.92q0-.23.09-.48.08-.24.25-.48.16-.24.41-.46.25-.21.59-.38-.78-.42-1.22-1.12-.45-.7-.45-1.64 0-.76.31-1.38.31-.61.85-1.04.54-.44 1.29-.67.74-.23 1.62-.23.66 0 1.24.14.58.13 1.06.39m4.59-.35h2.48v10.26h-2.48zm2.82-2.99q0 .32-.13.6t-.34.49q-.22.21-.51.33-.29.13-.62.13-.31 0-.6-.13-.29-.12-.5-.33t-.33-.49q-.13-.28-.13-.6 0-.33.13-.62.12-.29.33-.5t.5-.34q.29-.12.6-.12.33 0 .62.12.29.13.51.34.21.21.34.5t.13.62m4.32 3.44.17.81q.31-.31.66-.58.34-.26.73-.45.38-.18.82-.28.44-.11.96-.11.84 0 1.49.29.65.28 1.09.79.44.52.66 1.23.22.72.22 1.58v6.53h-2.47v-6.53q0-.94-.43-1.46-.43-.51-1.31-.51-.64 0-1.2.29t-1.06.79v7.42h-2.47V15.35h1.51q.48 0 .63.45m14.56 7.16v-1.73q-1.07.05-1.8.18-.73.14-1.17.35t-.63.49-.19.61q0 .65.39.93.38.28 1 .28.76 0 1.32-.27.55-.28 1.08-.84m-5.22-5.39-.44-.79q1.77-1.62 4.26-1.62.9 0 1.61.3.71.29 1.2.81.49.53.75 1.26.25.73.25 1.6v6.48h-1.11q-.36 0-.55-.1-.19-.11-.3-.43l-.22-.74q-.39.35-.76.61-.37.27-.77.45t-.85.28q-.46.09-1.01.09-.65 0-1.2-.17-.55-.18-.95-.53t-.62-.87-.22-1.21q0-.39.13-.78.13-.38.43-.73.29-.35.76-.66t1.16-.54q.68-.23 1.59-.38.91-.14 2.08-.17v-.6q0-1.03-.44-1.53-.44-.49-1.27-.49-.6 0-.99.14-.4.14-.7.32-.3.17-.54.31-.25.14-.55.14-.26 0-.44-.14-.18-.13-.29-.31m21.63-1.11-.56.89q-.1.16-.21.22-.11.07-.27.07-.18 0-.39-.1t-.48-.22q-.27-.13-.61-.23t-.82-.1q-.73 0-1.14.31-.42.31-.42.81 0 .33.22.55.21.23.57.4.35.17.8.3.45.14.92.3.46.16.92.37.44.2.8.51.35.32.57.76.21.44.21 1.06 0 .74-.26 1.36-.27.63-.79 1.08-.52.46-1.28.71-.77.26-1.77.26-.53 0-1.03-.09-.51-.1-.97-.27-.47-.17-.86-.4-.4-.23-.7-.5l.57-.94q.12-.17.26-.26.15-.09.38-.09t.44.13q.2.13.47.28t.64.28q.36.13.93.13.43 0 .75-.11.32-.1.52-.27t.3-.4q.09-.22.09-.46 0-.36-.21-.59-.22-.23-.57-.4-.36-.17-.81-.31-.46-.13-.93-.29-.48-.16-.93-.38-.46-.21-.81-.54-.36-.33-.57-.81-.22-.48-.22-1.16 0-.63.25-1.2t.74-.99q.48-.43 1.21-.69.72-.25 1.67-.25 1.06 0 1.93.35t1.45.92m3.92 2.84h4.66q0-.48-.13-.9-.14-.43-.41-.75-.26-.32-.68-.5-.42-.19-.97-.19-1.07 0-1.68.61-.62.61-.79 1.73m6.3 1.49h-6.35q.06.79.28 1.36.22.58.58.96.36.37.86.55.49.19 1.09.19t1.04-.14q.43-.14.76-.31t.57-.31.48-.14q.3 0 .45.23l.71.9q-.41.48-.91.81-.52.32-1.07.51-.56.2-1.13.28-.58.08-1.12.08-1.07 0-1.99-.36-.92-.35-1.6-1.05-.68-.69-1.07-1.72-.39-1.02-.39-2.37 0-1.05.34-1.98.34-.92.98-1.61.63-.68 1.55-1.08.91-.4 2.06-.4.97 0 1.8.31.81.31 1.4.9.6.6.93 1.46.34.87.34 1.98 0 .56-.13.76-.12.19-.46.19m2.51-5.44h2.48v10.26h-2.48zm2.82-2.99q0 .32-.13.6t-.34.49q-.22.21-.51.33-.29.13-.61.13t-.61-.13q-.29-.12-.5-.33t-.33-.49q-.13-.28-.13-.6 0-.33.13-.62.12-.29.33-.5t.5-.34q.29-.12.61-.12t.61.12q.29.13.51.34.21.21.34.5t.13.62"/></svg>