<svg xmlns="http://www.w3.org/2000/svg" width="84" height="56" viewBox="0 0 84 56"><rect width="100%" height="100%" fill="#CC0000"/><path fill="#FFF" d="M18.725 24.665v4.14q.38.45.83.64.44.19.96.19.51 0 .91-.19.41-.19.69-.57.29-.39.44-.98t.15-1.39q0-.81-.13-1.37t-.37-.92q-.25-.35-.59-.51-.35-.16-.79-.16-.69 0-1.18.29-.48.29-.92.83m-.29-2.3.18.86q.56-.64 1.28-1.04t1.7-.4q.75 0 1.38.32.62.31 1.08.91.45.6.7 1.48t.25 2.01q0 1.04-.28 1.92t-.8 1.53-1.25 1.01q-.73.37-1.64.37-.78 0-1.33-.24-.54-.24-.98-.67v3.79h-2.22v-12.25h1.36q.43 0 .57.4m10.26.15.13 1.05q.43-.83 1.03-1.3.59-.48 1.4-.48.64 0 1.03.28l-.15 1.67q-.04.16-.13.23-.08.07-.23.07-.13 0-.4-.05-.26-.04-.51-.04-.37 0-.66.1-.29.11-.52.31-.23.21-.4.49-.18.29-.33.66v5.69h-2.23v-9.23h1.31q.34 0 .48.12.13.12.18.43m8.83-.7q1.03 0 1.87.33.84.34 1.44.95t.92 1.49q.33.89.33 1.97 0 1.1-.33 1.98-.32.89-.92 1.51t-1.44.95q-.84.34-1.87.34t-1.88-.34q-.84-.33-1.44-.95t-.93-1.51q-.33-.88-.33-1.98 0-1.08.33-1.97.33-.88.93-1.49t1.44-.95q.85-.33 1.88-.33m0 7.8q1.16 0 1.71-.77t.55-2.27q0-1.49-.55-2.27-.55-.79-1.71-.79-1.17 0-1.73.79t-.56 2.27q0 1.49.56 2.27.56.77 1.73.77m8.48 1.58h-2.22v-9.23h1.36q.43 0 .57.4l.14.68q.24-.27.51-.49.26-.23.57-.39.3-.16.64-.25.35-.1.76-.1.88 0 1.44.47.56.48.84 1.26.22-.46.54-.79t.71-.53q.39-.21.83-.31.43-.1.87-.1.77 0 1.36.24.6.23 1 .68.41.45.62 1.1t.21 1.48v5.88h-2.22v-5.88q0-.88-.39-1.32-.39-.45-1.14-.45-.34 0-.63.12-.29.11-.51.33t-.35.56q-.13.33-.13.76v5.88h-2.23v-5.88q0-.92-.37-1.35-.37-.42-1.09-.42-.49 0-.91.24t-.78.65zm16.94-9.38q1.03 0 1.87.33.84.34 1.44.95t.92 1.49q.32.89.32 1.97 0 1.1-.32 1.98-.32.89-.92 1.51t-1.44.95q-.84.34-1.87.34t-1.88-.34q-.85-.33-1.44-.95-.6-.62-.93-1.51-.33-.88-.33-1.98 0-1.08.33-1.97.33-.88.93-1.49.59-.61 1.44-.95.85-.33 1.88-.33m0 7.8q1.15 0 1.71-.77.55-.77.55-2.27 0-1.49-.55-2.27-.56-.79-1.71-.79-1.17 0-1.73.79t-.56 2.27q0 1.49.56 2.27.56.77 1.73.77"/></svg>