<svg xmlns="http://www.w3.org/2000/svg" width="180" height="199" viewBox="0 0 180 199"><rect width="100%" height="100%" fill="#DDDDDD"/><path fill="#999999" d="M47.635 103.56q.23 0 .41.18l1.11 1.21q-.92 1.14-2.27 1.75t-3.24.61q-1.69 0-3.04-.58t-2.31-1.61q-.95-1.03-1.46-2.45-.51-1.43-.51-3.12 0-1.71.55-3.14.54-1.42 1.53-2.45 1-1.03 2.37-1.6 1.38-.57 3.05-.57 1.66 0 2.94.54 1.29.55 2.19 1.43l-.94 1.32q-.09.12-.22.22-.13.09-.36.09-.16 0-.33-.09-.16-.09-.36-.22t-.47-.29q-.26-.16-.6-.29-.35-.13-.81-.22-.45-.09-1.05-.09-1.02 0-1.87.37-.84.36-1.45 1.05-.61.68-.95 1.68-.33.99-.33 2.26 0 1.28.36 2.28.36.99.98 1.68.62.68 1.46 1.04t1.81.36q.58 0 1.04-.06.47-.06.86-.2.4-.14.75-.35.35-.22.7-.53.1-.1.22-.15.11-.06.24-.06m7.82-7.36q1.2 0 2.18.39t1.68 1.1 1.08 1.74q.37 1.03.37 2.3 0 1.28-.37 2.31-.38 1.03-1.08 1.76-.7.72-1.68 1.11t-2.18.39q-1.21 0-2.19-.39-.99-.39-1.69-1.11-.7-.73-1.08-1.76t-.38-2.31q0-1.27.38-2.3t1.08-1.74 1.69-1.1q.98-.39 2.19-.39m0 9.1q1.35 0 1.99-.9.65-.9.65-2.65 0-1.74-.65-2.65-.64-.92-1.99-.92-1.36 0-2.02.92t-.66 2.65q0 1.74.66 2.64.66.91 2.02.91m14.96-8.93h2.05l-4.27 10.77h-2.35l-4.28-10.77h2.14q.3 0 .49.13.2.14.26.35l2.08 5.75q.17.51.29.99.13.48.22.97.11-.49.23-.97.13-.48.31-.99l2.12-5.75q.07-.21.26-.35.19-.13.45-.13m5.47 4.14h4.9q0-.5-.14-.95-.15-.44-.43-.78-.28-.33-.72-.53-.43-.19-1.01-.19-1.13 0-1.77.64-.65.64-.83 1.81m6.62 1.57h-6.67q.07.83.3 1.43.23.61.61 1 .37.39.89.59.52.19 1.15.19t1.09-.15q.46-.14.8-.32t.6-.33q.25-.14.49-.14.33 0 .49.24l.74.94q-.43.51-.96.85-.54.34-1.12.54-.58.21-1.19.29-.6.09-1.17.09-1.12 0-2.09-.38-.96-.37-1.68-1.1-.71-.73-1.12-1.8-.41-1.08-.41-2.5 0-1.1.36-2.07.35-.97 1.02-1.69t1.63-1.14 2.17-.42q1.01 0 1.88.32.86.33 1.48.95.62.63.97 1.54t.35 2.07q0 .59-.13.79-.12.21-.48.21m4.84-5.06.16 1.22q.5-.97 1.19-1.52.7-.55 1.64-.55.75 0 1.2.32l-.17 1.95q-.05.18-.15.26t-.27.08q-.16 0-.47-.05t-.6-.05q-.43 0-.77.12-.33.13-.6.37-.27.23-.47.57-.21.33-.39.76v6.64h-2.59V96.37h1.52q.4 0 .56.14t.21.51m14 10.12h-2.6v-8.82l-.93-.15q-.31-.06-.49-.21t-.18-.44v-1.06h1.6v-.8q0-.92.28-1.66.28-.73.8-1.25.52-.51 1.26-.78.75-.28 1.68-.28.75 0 1.39.2l-.05 1.31q-.01.14-.09.23-.07.09-.19.14t-.28.06q-.16.02-.33.02-.47 0-.83.1t-.61.34q-.25.25-.39.65-.13.41-.13 1.01v.71h2.81v1.85h-2.72zm6.46-10.12.16 1.22q.51-.97 1.2-1.52t1.64-.55q.74 0 1.19.32l-.16 1.95q-.06.18-.16.26t-.26.08-.47-.05-.6-.05q-.44 0-.77.12-.34.13-.61.37-.26.23-.47.57-.2.33-.38.76v6.64h-2.59V96.37h1.52q.4 0 .55.14.16.14.21.51m10.32-.82q1.19 0 2.17.39.99.39 1.68 1.1.7.71 1.08 1.74t.38 2.3q0 1.28-.38 2.31t-1.08 1.76q-.69.72-1.68 1.11-.98.39-2.17.39-1.21 0-2.2-.39t-1.68-1.11q-.7-.73-1.09-1.76-.38-1.03-.38-2.31 0-1.27.38-2.3.39-1.03 1.09-1.74.69-.71 1.68-1.1t2.2-.39m0 9.1q1.34 0 1.99-.9.64-.9.64-2.65 0-1.74-.64-2.65-.65-.92-1.99-.92-1.37 0-2.03.92-.65.92-.65 2.65 0 1.74.65 2.64.66.91 2.03.91m9.54-8.46.18.85q.32-.33.69-.6.36-.28.76-.48.41-.19.87-.3t1.01-.11q.88 0 1.56.3t1.14.84.69 1.29q.24.75.24 1.65v6.86h-2.59v-6.86q0-.98-.45-1.52-.46-.55-1.38-.55-.67 0-1.26.31-.59.3-1.11.83v7.79h-2.6V96.37h1.59q.5 0 .66.47m13.19 10.47q-1.41 0-2.16-.79-.75-.8-.75-2.19v-6.02h-1.1q-.21 0-.36-.14-.15-.13-.15-.41v-1.03l1.74-.28.54-2.94q.05-.21.2-.32.15-.12.38-.12h1.34v3.39h2.88v1.85h-2.88v5.84q0 .5.25.78.25.29.68.29.24 0 .4-.06t.28-.12q.13-.06.22-.12t.19-.06q.11 0 .19.06.07.06.16.17l.77 1.26q-.56.47-1.3.72-.73.24-1.52.24"/></svg>