<svg xmlns="http://www.w3.org/2000/svg" width="370" height="55" viewBox="0 0 370 55"><rect width="100%" height="100%" fill="#eee"/><path fill="#555" d="M103.32 30.765q.31 0 .54.23l1.49 1.61q-1.23 1.53-3.03 2.34t-4.32.81q-2.26 0-4.05-.77-1.8-.77-3.08-2.14-1.27-1.37-1.95-3.27-.68-1.91-.68-4.16 0-2.28.73-4.18t2.05-3.27 3.16-2.14q1.83-.76 4.06-.76 2.21 0 3.92.73 1.72.73 2.92 1.9l-1.26 1.75q-.11.17-.28.3-.18.12-.49.12-.21 0-.43-.12-.23-.11-.49-.29-.27-.17-.62-.38t-.81-.39q-.46-.17-1.07-.29t-1.41-.12q-1.36 0-2.48.48-1.13.48-1.94 1.4t-1.26 2.24-.45 3.02q0 1.71.48 3.04.49 1.33 1.31 2.24.83.91 1.95 1.39t2.41.48q.77 0 1.39-.08.62-.09 1.15-.27.52-.18.99-.47.47-.28.93-.7.14-.13.3-.21.15-.07.32-.07m4.18-9.59h3.48v14.36h-3.48zm3.95-4.19q0 .45-.18.84t-.48.69q-.3.29-.71.47-.41.17-.87.17-.45 0-.84-.17-.4-.18-.7-.47-.29-.3-.47-.69-.17-.39-.17-.84 0-.46.17-.87.18-.4.47-.7.3-.29.7-.47.39-.17.84-.17.46 0 .87.17.41.18.71.47.3.3.48.7.18.41.18.87m7.84 18.77q-1.87 0-2.87-1.05-1.01-1.06-1.01-2.92v-8.02h-1.47q-.28 0-.47-.19-.2-.18-.2-.54v-1.37l2.31-.38.73-3.92q.07-.28.27-.44.19-.15.5-.15h1.79v4.52h3.84v2.47h-3.84v7.78q0 .67.33 1.05t.9.38q.33 0 .54-.08.22-.08.38-.16t.29-.16q.12-.08.25-.08.15 0 .25.08t.21.23l1.04 1.68q-.76.63-1.74.95t-2.03.32m15.91-14.58h2.77l-7.83 18.31q-.15.36-.4.55-.24.19-.75.19h-2.57l2.69-5.77-5.81-13.28h3.03q.41 0 .64.19.23.2.34.45l3.06 7.45q.15.38.26.75.1.38.2.77.12-.39.25-.77.13-.39.28-.77l2.88-7.43q.12-.28.38-.46.25-.18.58-.18m25.59-5.88h3.32v20.24h-1.94q-.44 0-.74-.15-.31-.14-.59-.49l-10.57-13.5q.09.92.09 1.71v12.43h-3.32v-20.24h1.97q.24 0 .42.02.17.02.31.08.13.06.25.18.13.12.28.32l10.62 13.55q-.05-.49-.07-.97-.03-.47-.03-.88zm14.87 16.53v-2.42q-1.5.07-2.52.26-1.03.19-1.64.48-.62.29-.88.69-.27.39-.27.85 0 .91.54 1.3t1.41.39q1.06 0 1.84-.38.77-.39 1.52-1.17m-7.31-7.55-.62-1.1q2.48-2.27 5.97-2.27 1.26 0 2.25.41.99.42 1.68 1.15.69.74 1.04 1.76.36 1.02.36 2.24v9.07h-1.57q-.49 0-.75-.15-.27-.14-.42-.59l-.31-1.04q-.55.49-1.07.86-.51.37-1.07.63-.56.25-1.2.38t-1.41.13q-.91 0-1.68-.24-.77-.25-1.33-.74t-.87-1.21q-.3-.73-.3-1.7 0-.54.18-1.08t.59-1.03q.42-.49 1.07-.93.66-.43 1.62-.75t2.23-.53q1.28-.2 2.92-.24v-.84q0-1.44-.62-2.14-.62-.69-1.78-.69-.84 0-1.39.2-.55.19-.97.44l-.77.44q-.34.19-.76.19-.36 0-.62-.18-.25-.19-.4-.45m17.39 11.26h-3.46v-14.36h2.11q.67 0 .88.63l.23 1.06q.38-.42.79-.77t.88-.6 1.01-.4 1.18-.15q1.36 0 2.24.74.87.73 1.3 1.95.34-.71.84-1.23.51-.51 1.11-.83t1.28-.47q.68-.16 1.37-.16 1.19 0 2.11.37.92.36 1.55 1.06t.96 1.71.33 2.31v9.14h-3.46v-9.14q0-1.37-.6-2.07-.6-.69-1.76-.69-.53 0-.99.18-.45.18-.8.53-.34.34-.54.86-.19.52-.19 1.19v9.14h-3.47v-9.14q0-1.44-.58-2.1-.59-.66-1.71-.66-.75 0-1.4.37t-1.21 1.02zm22.72-8.83h6.52q0-.68-.19-1.27-.19-.6-.56-1.04-.38-.45-.96-.71t-1.35-.26q-1.5 0-2.36.85-.86.86-1.1 2.43m8.82 2.08h-8.89q.08 1.11.39 1.91.31.81.81 1.33.51.53 1.2.79t1.53.26 1.45-.2 1.07-.43q.45-.24.79-.44.35-.19.67-.19.43 0 .64.32l1 1.26q-.58.67-1.29 1.12-.72.46-1.49.73-.78.28-1.58.39-.81.11-1.57.11-1.49 0-2.78-.5-1.29-.49-2.24-1.47-.95-.97-1.5-2.41-.55-1.43-.55-3.32 0-1.47.48-2.77.48-1.29 1.37-2.25.88-.96 2.17-1.52 1.28-.56 2.89-.56 1.35 0 2.5.44 1.15.43 1.98 1.26.82.84 1.29 2.05t.47 2.76q0 .79-.17 1.06t-.64.27m14.52-3.32h2.81q1.04 0 1.81-.26.77-.25 1.28-.74.51-.48.76-1.17.25-.7.25-1.55 0-.81-.25-1.47t-.76-1.12q-.5-.46-1.27-.71-.77-.24-1.82-.24h-2.81zm-3.77-10.17h6.58q2.03 0 3.51.47 1.49.48 2.45 1.33.97.86 1.44 2.05t.47 2.6q0 1.47-.49 2.69-.49 1.23-1.47 2.11t-2.46 1.37-3.45.49h-2.81v7.13h-3.77zm23.14 5.65q1.6 0 2.91.52t2.24 1.47 1.43 2.32q.51 1.38.51 3.07 0 1.71-.51 3.08-.5 1.37-1.43 2.34-.93.96-2.24 1.48t-2.91.52q-1.61 0-2.92-.52-1.32-.52-2.25-1.48-.93-.97-1.44-2.34t-.51-3.08q0-1.69.51-3.07.51-1.37 1.44-2.32t2.25-1.47q1.31-.52 2.92-.52m0 12.14q1.79 0 2.66-1.2.86-1.21.86-3.53 0-2.33-.86-3.54-.87-1.22-2.66-1.22-1.82 0-2.69 1.22-.88 1.23-.88 3.54t.88 3.52q.87 1.21 2.69 1.21m19.28-10.36-.78 1.25q-.14.22-.3.31-.15.09-.39.09-.25 0-.54-.14t-.66-.31q-.38-.18-.86-.32-.49-.14-1.15-.14-1.02 0-1.6.44-.58.43-.58 1.13 0 .46.3.78.3.31.8.55t1.13.43 1.28.41 1.28.51 1.13.73q.49.44.79 1.06.3.61.3 1.48 0 1.04-.37 1.91-.37.88-1.1 1.51-.72.64-1.79 1-1.08.35-2.48.35-.74 0-1.44-.13-.71-.13-1.36-.37t-1.21-.56q-.55-.32-.97-.7l.8-1.32q.15-.23.36-.36t.53-.13q.33 0 .61.19.29.18.67.39t.89.39 1.29.18q.62 0 1.06-.15.44-.14.73-.38.28-.24.42-.55.13-.32.13-.65 0-.51-.3-.83t-.8-.56-1.13-.43q-.64-.19-1.3-.41-.67-.22-1.31-.53-.63-.3-1.13-.76t-.8-1.13-.3-1.63q0-.88.35-1.68.35-.79 1.03-1.39.68-.59 1.69-.95 1.02-.36 2.35-.36 1.48 0 2.7.49t2.03 1.29m7.55 13.03q-1.88 0-2.88-1.05-1-1.06-1-2.92v-8.02h-1.47q-.28 0-.48-.19-.19-.18-.19-.54v-1.37l2.31-.38.72-3.92q.07-.28.27-.44.2-.15.5-.15h1.8v4.52h3.83v2.47h-3.83v7.78q0 .67.33 1.05.32.38.9.38.32 0 .54-.08.21-.08.38-.16.16-.08.28-.16.13-.08.25-.08.16 0 .26.08.09.08.21.23l1.03 1.68q-.75.63-1.73.95t-2.03.32"/></svg>