<svg xmlns="http://www.w3.org/2000/svg" width="614" height="410" viewBox="0 0 614 410"><rect width="100%" height="100%" fill="#eee"/><path fill="#990000" d="M126.49 194.4v17.35h-3.24V194.4zm6.37 17.35h-2.96v-12.31h1.81q.58 0 .76.54l.19.91q.32-.36.68-.66.35-.3.75-.52.41-.21.87-.34.46-.12 1.01-.12 1.17 0 1.92.63t1.12 1.67q.29-.61.72-1.05t.95-.71q.51-.28 1.09-.41.59-.13 1.17-.13 1.02 0 1.82.31.79.31 1.33.91t.82 1.46q.28.87.28 1.98v7.84h-2.96v-7.84q0-1.17-.52-1.77-.51-.59-1.51-.59-.46 0-.85.16-.39.15-.68.45-.29.29-.46.73-.17.45-.17 1.02v7.84h-2.98v-7.84q0-1.23-.49-1.8-.5-.56-1.46-.56-.65 0-1.21.32t-1.04.87zm20.1 0H150v-12.31h1.81q.58 0 .76.54l.19.91q.32-.36.68-.66.35-.3.75-.52.41-.21.87-.34.46-.12 1.01-.12 1.17 0 1.92.63t1.12 1.67q.29-.61.72-1.05t.95-.71q.51-.28 1.09-.41.59-.13 1.17-.13 1.02 0 1.82.31.79.31 1.33.91t.82 1.46q.28.87.28 1.98v7.84h-2.96v-7.84q0-1.17-.52-1.77-.51-.59-1.51-.59-.46 0-.85.16-.39.15-.68.45-.29.29-.46.73-.17.45-.17 1.02v7.84h-2.98v-7.84q0-1.23-.49-1.8-.5-.56-1.46-.56-.65 0-1.21.32t-1.04.87zm23.64-3.18v-2.08q-1.28.06-2.16.23-.87.16-1.4.41t-.76.59q-.22.33-.22.73 0 .78.46 1.12.46.33 1.2.33.92 0 1.58-.33.67-.33 1.3-1m-6.26-6.47-.53-.95q2.13-1.94 5.11-1.94 1.08 0 1.94.35.85.36 1.44.99.58.63.89 1.5.31.88.31 1.92v7.78h-1.35q-.42 0-.65-.13-.22-.12-.36-.51l-.26-.88q-.47.42-.91.73-.45.32-.93.54-.48.21-1.02.33-.55.11-1.21.11-.78 0-1.44-.21t-1.14-.63-.74-1.04q-.27-.63-.27-1.45 0-.47.16-.93.16-.47.51-.89t.92-.79q.56-.37 1.38-.65.83-.27 1.92-.45 1.09-.17 2.49-.21v-.72q0-1.23-.52-1.83-.53-.59-1.53-.59-.72 0-1.19.17-.48.17-.84.38t-.65.37q-.29.17-.65.17-.32 0-.53-.16-.22-.16-.35-.38m16.44 3.19q.55 0 .96-.15t.68-.41.41-.64q.13-.37.13-.81 0-.91-.54-1.45-.55-.53-1.64-.53t-1.64.53q-.54.54-.54 1.45 0 .43.13.8.14.37.41.64t.69.42q.41.15.95.15m3.35 7.01q0-.36-.22-.59-.21-.22-.59-.35-.37-.13-.87-.19-.49-.06-1.05-.09t-1.15-.05q-.6-.02-1.16-.1-.49.28-.8.65t-.31.87q0 .32.17.6.16.28.51.49.36.2.92.32.56.11 1.38.11.83 0 1.43-.13.6-.12.99-.34.39-.23.57-.53.18-.31.18-.67m-.59-12.44h3.54v1.1q0 .53-.64.65l-1.1.2q.25.64.25 1.4 0 .91-.36 1.65-.37.73-1.02 1.25t-1.53.8-1.9.28q-.36 0-.7-.04-.33-.03-.66-.09-.57.35-.57.78 0 .37.34.54.34.18.91.25.56.07 1.28.09t1.48.08q.75.06 1.47.21t1.29.47q.56.33.9.88.34.56.34 1.44 0 .81-.4 1.58t-1.16 1.37-1.87.97q-1.11.36-2.53.36-1.39 0-2.42-.27-1.04-.27-1.72-.72t-1.02-1.04q-.34-.58-.34-1.22 0-.86.53-1.45.52-.58 1.43-.93-.49-.25-.78-.67t-.29-1.1q0-.28.1-.57.11-.3.3-.58.2-.29.5-.55t.71-.46q-.94-.51-1.47-1.35t-.53-1.96q0-.92.36-1.65.37-.74 1.02-1.26.66-.53 1.55-.8.89-.28 1.95-.28.79 0 1.49.16.69.17 1.27.48m5.51-.42h2.97v12.31h-2.97zm3.38-3.59q0 .38-.15.72-.16.34-.42.59t-.6.4q-.35.15-.75.15-.38 0-.72-.15-.35-.15-.6-.4t-.4-.59-.15-.72q0-.4.15-.74.15-.35.4-.6.25-.26.6-.41.34-.15.72-.15.4 0 .75.15.34.15.6.41.26.25.42.6.15.34.15.74m5.19 4.13.2.97q.37-.37.79-.69.41-.32.87-.54t.99-.35q.53-.12 1.15-.12 1.01 0 1.79.34t1.3.96q.53.62.8 1.47.27.86.27 1.89v7.84h-2.97v-7.84q0-1.12-.51-1.74-.52-.62-1.58-.62-.76 0-1.44.35-.67.35-1.27.95v8.9h-2.96v-12.31h1.81q.58 0 .76.54m13.3 4.2h5.6q0-.58-.17-1.09-.16-.51-.48-.89-.33-.39-.82-.61-.5-.22-1.16-.22-1.29 0-2.02.73-.74.73-.95 2.08m7.56 1.79h-7.62q.08.94.34 1.63t.7 1.14q.43.45 1.02.68.6.22 1.32.22t1.24-.17.91-.37q.39-.21.68-.37.3-.17.57-.17.38 0 .56.27l.85 1.08q-.49.58-1.11.97-.61.39-1.27.62-.67.24-1.36.33-.69.1-1.34.1-1.28 0-2.39-.43-1.1-.42-1.92-1.26-.81-.83-1.28-2.06t-.47-2.85q0-1.26.41-2.37t1.17-1.93 1.86-1.3 2.48-.48q1.16 0 2.15.37.98.37 1.69 1.08.71.72 1.11 1.76.4 1.03.4 2.37 0 .67-.14.9-.15.24-.56.24m11.09-1.79h5.59q0-.58-.16-1.09t-.48-.89q-.33-.39-.83-.61-.49-.22-1.15-.22-1.29 0-2.03.73-.73.73-.94 2.08m7.56 1.79h-7.62q.07.94.34 1.63.26.69.69 1.14.44.45 1.03.68.59.22 1.31.22t1.25-.17q.52-.17.91-.37.39-.21.68-.37.3-.17.57-.17.37 0 .55.27l.86 1.08q-.5.58-1.11.97t-1.28.62q-.66.24-1.35.33-.69.1-1.34.1-1.28 0-2.39-.43-1.1-.42-1.92-1.26-.81-.83-1.28-2.06t-.47-2.85q0-1.26.41-2.37t1.17-1.93 1.86-1.3 2.48-.48q1.16 0 2.14.37.99.37 1.7 1.08.7.72 1.11 1.76.4 1.03.4 2.37 0 .67-.15.9-.14.24-.55.24m11.68-6.53h2.34l-4.89 12.31h-2.68l-4.89-12.31h2.45q.34 0 .56.15.22.16.29.4l2.38 6.58q.19.57.33 1.12.15.56.26 1.11.12-.55.26-1.11.14-.55.35-1.12l2.42-6.58q.09-.24.3-.4.22-.15.52-.15m4.01 0h2.97v12.31h-2.97zm3.38-3.59q0 .38-.16.72-.15.34-.41.59t-.61.4q-.34.15-.74.15-.38 0-.73-.15-.34-.15-.59-.4t-.4-.59-.15-.72q0-.4.15-.74.15-.35.4-.6.25-.26.59-.41.35-.15.73-.15.4 0 .74.15.35.15.61.41.26.25.41.6.16.34.16.74m10.34 12.25v-5.52q-.5-.61-1.09-.86-.6-.25-1.28-.25-.67 0-1.21.25t-.93.76q-.38.51-.59 1.3-.2.78-.2 1.85 0 1.08.17 1.83.18.75.5 1.22.33.48.79.69.47.21 1.05.21.92 0 1.57-.39.65-.38 1.22-1.09m0-14.18h2.97v17.83h-1.81q-.59 0-.75-.54l-.25-1.19q-.74.85-1.71 1.38t-2.25.53q-1.01 0-1.85-.42t-1.44-1.22q-.61-.8-.94-1.97-.33-1.18-.33-2.69 0-1.37.37-2.54.37-1.18 1.07-2.04.7-.87 1.67-1.35.97-.49 2.18-.49 1.03 0 1.77.32.73.33 1.3.88zm8.24 10.26h5.59q0-.58-.16-1.09-.17-.51-.49-.89-.32-.39-.82-.61t-1.16-.22q-1.28 0-2.02.73t-.94 2.08m7.56 1.79h-7.62q.07.94.33 1.63.27.69.7 1.14t1.02.68q.6.22 1.32.22t1.24-.17.91-.37l.69-.37q.29-.17.57-.17.37 0 .55.27l.85 1.08q-.49.58-1.1.97-.62.39-1.28.62-.67.24-1.36.33-.69.1-1.34.1-1.28 0-2.38-.43-1.11-.42-1.92-1.26-.82-.83-1.29-2.06t-.47-2.85q0-1.26.41-2.37t1.17-1.93 1.86-1.3 2.48-.48q1.16 0 2.15.37.98.37 1.69 1.08.71.72 1.11 1.76.4 1.03.4 2.37 0 .67-.14.9-.15.24-.55.24m5.48-5.99.2.97q.38-.37.79-.69t.88-.54q.46-.22.99-.35.52-.12 1.15-.12 1.01 0 1.79.34t1.3.96.79 1.47q.27.86.27 1.89v7.84h-2.96v-7.84q0-1.12-.52-1.74t-1.57-.62q-.77 0-1.44.35t-1.27.95v8.9h-2.97v-12.31h1.81q.58 0 .76.54m19.81-.54v1.22q0 .31-.11.61-.1.3-.28.5l-5.85 7.7h6.06v2.28h-9.5v-1.24q0-.2.09-.48.1-.28.29-.54l5.91-7.78h-5.94v-2.27zm8.69 9.13v-2.08q-1.28.06-2.16.23-.88.16-1.4.41-.53.25-.76.59-.23.33-.23.73 0 .78.46 1.12.47.33 1.21.33.91 0 1.58-.33.66-.33 1.3-1m-6.26-6.47-.53-.95q2.12-1.94 5.11-1.94 1.08 0 1.93.35.85.36 1.44.99t.9 1.5q.3.88.3 1.92v7.78h-1.34q-.42 0-.65-.13-.23-.12-.36-.51l-.26-.88q-.47.42-.92.73-.44.32-.92.54-.48.21-1.03.33-.54.11-1.2.11-.78 0-1.44-.21t-1.14-.63-.75-1.04q-.26-.63-.26-1.45 0-.47.16-.93.15-.47.51-.89.35-.42.91-.79.57-.37 1.39-.65.82-.27 1.91-.45 1.1-.17 2.5-.21v-.72q0-1.23-.53-1.83-.53-.59-1.52-.59-.72 0-1.2.17-.47.17-.83.38t-.65.37q-.3.17-.66.17-.31 0-.53-.16-.21-.16-.34-.38m21.87 9.84q-1.61 0-2.46-.9-.86-.91-.86-2.51v-6.87h-1.26q-.24 0-.41-.16-.17-.15-.17-.47v-1.17l1.98-.33.63-3.36q.06-.24.22-.37.17-.13.44-.13h1.53v3.88h3.29v2.11h-3.29v6.67q0 .58.28.9.29.32.78.32.27 0 .46-.06.19-.07.32-.14.14-.07.25-.14.11-.06.22-.06.13 0 .21.06.09.07.18.2l.89 1.44q-.65.54-1.49.82-.84.27-1.74.27m7.17-7.76h5.59q0-.58-.16-1.09-.17-.51-.49-.89-.32-.39-.82-.61t-1.16-.22q-1.28 0-2.02.73t-.94 2.08m7.56 1.79h-7.62q.07.94.33 1.63.27.69.7 1.14t1.02.68q.6.22 1.32.22t1.24-.17.91-.37l.69-.37q.29-.17.57-.17.37 0 .55.27l.85 1.08q-.49.58-1.1.97-.62.39-1.28.62-.67.24-1.36.33-.69.1-1.34.1-1.28 0-2.38-.43-1.11-.42-1.92-1.26-.82-.83-1.29-2.06t-.47-2.85q0-1.26.41-2.37t1.17-1.93 1.86-1.3 2.48-.48q1.16 0 2.15.37.98.37 1.69 1.08.71.72 1.11 1.76.4 1.03.4 2.37 0 .67-.14.9-.15.24-.55.24m5.53-5.79.18 1.39q.57-1.1 1.37-1.73.79-.63 1.87-.63.85 0 1.37.37l-.2 2.22q-.06.22-.17.31t-.31.09q-.18 0-.53-.06t-.69-.06q-.49 0-.88.14-.38.15-.69.42-.3.27-.54.65-.23.38-.43.88v7.58h-2.97v-12.31h1.74q.46 0 .64.16t.24.58m15.18-.74v1.22q0 .31-.11.61t-.29.5l-5.84 7.7h6.06v2.28h-9.51v-1.24q0-.2.1-.48t.29-.54l5.9-7.78h-5.94v-2.27zm7.63-.19q1.37 0 2.49.44t1.92 1.26 1.23 1.99q.43 1.18.43 2.63 0 1.46-.43 2.64t-1.23 2q-.8.83-1.92 1.28-1.12.44-2.49.44-1.38 0-2.51-.44-1.13-.45-1.92-1.28-.8-.82-1.24-2t-.44-2.64q0-1.45.44-2.63.44-1.17 1.24-1.99.79-.82 1.92-1.26t2.51-.44m0 10.4q1.54 0 2.27-1.03.74-1.03.74-3.03 0-1.99-.74-3.03-.73-1.05-2.27-1.05-1.56 0-2.31 1.05t-.75 3.03.75 3.02 2.31 1.04m17.14-6.61v5.52q.5.61 1.09.86.6.25 1.29.25.68 0 1.22-.25t.91-.77q.38-.51.59-1.3.2-.78.2-1.85 0-1.08-.17-1.83-.18-.75-.5-1.22-.33-.47-.79-.68-.46-.22-1.05-.22-.92 0-1.57.39t-1.22 1.1m-.4-3.06.24 1.14q.76-.85 1.72-1.38t2.25-.53q1.01 0 1.84.42.84.42 1.44 1.22.61.8.94 1.97t.33 2.68q0 1.38-.37 2.55-.37 1.18-1.06 2.04-.69.87-1.67 1.35-.98.49-2.19.49-1.03 0-1.77-.32-.73-.32-1.3-.88v5.04h-2.97v-16.33h1.81q.58 0 .76.54m11.16-.54h2.98v12.31h-2.98zm3.38-3.59q0 .38-.15.72-.16.34-.42.59-.25.25-.6.4t-.75.15q-.38 0-.72-.15t-.6-.4q-.25-.25-.4-.59t-.15-.72q0-.4.15-.74.15-.35.4-.6.26-.26.6-.41t.72-.15q.4 0 .75.15t.6.41q.26.25.42.6.15.34.15.74m9.12 12.72v-2.08q-1.28.06-2.16.23-.87.16-1.4.41t-.76.59q-.22.33-.22.73 0 .78.46 1.12.46.33 1.2.33.92 0 1.58-.33.67-.33 1.3-1m-6.26-6.47-.53-.95q2.13-1.94 5.11-1.94 1.08 0 1.94.35.85.36 1.44.99.58.63.89 1.5.31.88.31 1.92v7.78h-1.35q-.42 0-.65-.13-.22-.12-.36-.51l-.26-.88q-.47.42-.91.73-.45.32-.93.54-.48.21-1.02.33-.55.11-1.21.11-.78 0-1.44-.21t-1.14-.63-.74-1.04q-.27-.63-.27-1.45 0-.47.16-.93.16-.47.51-.89t.92-.79q.56-.37 1.38-.65.83-.27 1.92-.45 1.09-.17 2.49-.21v-.72q0-1.23-.52-1.83-.53-.59-1.53-.59-.72 0-1.19.17-.48.17-.84.38t-.65.37q-.29.17-.65.17-.32 0-.53-.16-.22-.16-.35-.38m14.51-2.12.2.97q.37-.37.79-.69.41-.32.87-.54.47-.22.99-.35.53-.12 1.16-.12 1 0 1.78.34t1.31.96q.52.62.79 1.47.27.86.27 1.89v7.84h-2.97v-7.84q0-1.12-.51-1.74-.52-.62-1.57-.62-.77 0-1.44.35-.68.35-1.28.95v8.9h-2.96v-12.31h1.81q.58 0 .76.54m16.41-.73q1.37 0 2.49.44 1.13.44 1.92 1.26.8.82 1.23 1.99.44 1.18.44 2.63 0 1.46-.44 2.64-.43 1.18-1.23 2-.79.83-1.92 1.28-1.12.44-2.49.44-1.38 0-2.5-.44-1.13-.45-1.93-1.28-.8-.82-1.24-2-.43-1.18-.43-2.64 0-1.45.43-2.63.44-1.17 1.24-1.99t1.93-1.26q1.12-.44 2.5-.44m0 10.4q1.54 0 2.28-1.03t.74-3.03q0-1.99-.74-3.03-.74-1.05-2.28-1.05-1.56 0-2.31 1.05t-.75 3.03.75 3.02 2.31 1.04m17.14-6.61v5.52q.5.61 1.1.86.59.25 1.25.25.69 0 1.23-.24.55-.25.93-.77.39-.52.59-1.33t.2-1.94q0-2.03-.67-2.93-.67-.91-1.93-.91-.85 0-1.49.39-.63.39-1.21 1.1m0-9.12v7.03q.74-.78 1.65-1.24t2.07-.46q1.07 0 1.93.42.85.42 1.46 1.2.61.79.93 1.9.32 1.12.32 2.51 0 1.5-.37 2.73-.37 1.22-1.06 2.09t-1.66 1.35-2.16.48q-.58 0-1.05-.11-.46-.12-.86-.32-.4-.21-.73-.5t-.63-.65l-.13.82q-.07.32-.24.45-.18.13-.48.13h-1.95v-17.83zm10.75 5.52h2.98v12.31h-2.98zm3.39-3.59q0 .38-.16.72t-.41.59q-.26.25-.61.4t-.74.15-.73-.15-.59-.4q-.26-.25-.41-.59t-.15-.72q0-.4.15-.74.15-.35.41-.6.25-.26.59-.41t.73-.15.74.15.61.41q.25.25.41.6.16.34.16.74m7.11 9.44q.55 0 .96-.15t.68-.41.41-.64q.14-.37.14-.81 0-.91-.55-1.45-.55-.53-1.64-.53t-1.64.53q-.54.54-.54 1.45 0 .43.14.8.13.37.4.64t.69.42q.41.15.95.15m3.35 7.01q0-.36-.22-.59-.21-.22-.58-.35-.38-.13-.87-.19-.5-.06-1.06-.09t-1.15-.05q-.6-.02-1.16-.1-.49.28-.8.65-.3.37-.3.87 0 .32.16.6t.51.49q.36.2.92.32.57.11 1.38.11.83 0 1.43-.13.6-.12.99-.34.39-.23.57-.53.18-.31.18-.67m-.59-12.44h3.54v1.1q0 .53-.63.65l-1.11.2q.25.64.25 1.4 0 .91-.36 1.65-.37.73-1.02 1.25-.64.52-1.53.8-.88.28-1.9.28-.36 0-.69-.04-.34-.03-.66-.09-.58.35-.58.78 0 .37.34.54.34.18.91.25.56.07 1.28.09t1.48.08q.75.06 1.47.21t1.29.47q.56.33.9.88.35.56.35 1.44 0 .81-.41 1.58-.4.77-1.16 1.37t-1.87.97q-1.11.36-2.53.36-1.39 0-2.42-.27t-1.72-.72q-.68-.45-1.02-1.04-.33-.58-.33-1.22 0-.86.52-1.45.52-.58 1.43-.93-.49-.25-.78-.67t-.29-1.1q0-.28.11-.57.1-.3.3-.58.19-.29.49-.55t.71-.46q-.93-.51-1.47-1.35-.53-.84-.53-1.96 0-.92.36-1.65.37-.74 1.02-1.26.66-.53 1.55-.8.9-.28 1.95-.28.79 0 1.49.16.7.17 1.27.48"/></svg>