<svg xmlns="http://www.w3.org/2000/svg" width="804" height="506" viewBox="0 0 804 506"><rect width="100%" height="100%" fill="#eee"/><path fill="#990000" d="M161.34 237.98v24.58h-4.59v-24.58zm9.03 24.58h-4.2v-17.44h2.57q.81 0 1.07.76l.27 1.29q.46-.51.96-.93.5-.43 1.07-.73.57-.31 1.23-.49.65-.17 1.43-.17 1.65 0 2.71.89 1.07.89 1.59 2.37.41-.87 1.02-1.49.62-.62 1.35-1.01t1.55-.58q.83-.18 1.66-.18 1.44 0 2.57.44 1.12.44 1.88 1.29.77.85 1.17 2.07.4 1.23.4 2.81v11.1h-4.2v-11.1q0-1.67-.73-2.51t-2.14-.84q-.65 0-1.2.22-.56.22-.97.64-.42.41-.66 1.04-.23.63-.23 1.45v11.1h-4.22v-11.1q0-1.75-.71-2.55-.7-.8-2.06-.8-.92 0-1.71.45t-1.47 1.23zm28.47 0h-4.19v-17.44h2.56q.82 0 1.07.76l.28 1.29q.45-.51.96-.93.5-.43 1.07-.73.57-.31 1.22-.49.66-.17 1.44-.17 1.65 0 2.71.89t1.59 2.37q.41-.87 1.02-1.49t1.34-1.01 1.56-.58q.82-.18 1.65-.18 1.45 0 2.57.44t1.89 1.29q.76.85 1.16 2.07.4 1.23.4 2.81v11.1h-4.2v-11.1q0-1.67-.73-2.51t-2.14-.84q-.65 0-1.2.22t-.97.64q-.41.41-.65 1.04t-.24 1.45v11.1h-4.22v-11.1q0-1.75-.7-2.55-.71-.8-2.07-.8-.91 0-1.7.45-.8.45-1.48 1.23zm33.49-4.5v-2.95q-1.81.09-3.06.32-1.24.23-1.98.58-.75.36-1.08.84-.32.47-.32 1.03 0 1.11.66 1.59.65.47 1.7.47 1.3 0 2.24-.47.94-.46 1.84-1.41m-8.87-9.17-.75-1.34q3.01-2.76 7.24-2.76 1.53 0 2.74.51 1.21.5 2.04 1.39t1.27 2.13q.43 1.24.43 2.72v11.02h-1.9q-.6 0-.92-.18t-.51-.72l-.37-1.26q-.67.6-1.3 1.05t-1.31.75q-.68.31-1.45.47t-1.71.16q-1.1 0-2.04-.3-.93-.29-1.61-.89-.68-.59-1.06-1.48-.37-.88-.37-2.05 0-.67.22-1.32.22-.66.72-1.25.5-.6 1.3-1.12.8-.53 1.97-.92 1.16-.39 2.71-.64t3.53-.3v-1.02q0-1.75-.74-2.59-.75-.84-2.16-.84-1.02 0-1.69.24-.68.24-1.19.53l-.92.54q-.42.24-.93.24-.44 0-.75-.23-.3-.23-.49-.54m23.29 4.52q.78 0 1.36-.21t.96-.59q.38-.37.58-.9.19-.52.19-1.15 0-1.29-.77-2.05t-2.32-.76-2.32.76-.77 2.05q0 .61.19 1.14.2.52.58.91.38.38.97.59t1.35.21m4.74 9.93q0-.51-.3-.83-.31-.32-.84-.5-.52-.18-1.23-.27-.7-.08-1.49-.12-.79-.05-1.64-.08-.84-.03-1.64-.14-.69.39-1.13.92-.43.53-.43 1.23 0 .46.23.85.23.4.73.69t1.3.45q.8.17 1.96.17 1.17 0 2.02-.18t1.4-.5q.55-.31.81-.74.25-.44.25-.95m-.83-17.63h5.02v1.57q0 .74-.91.91l-1.56.29q.36.9.36 1.98 0 1.29-.52 2.33-.52 1.05-1.44 1.78t-2.16 1.13q-1.25.4-2.7.4-.51 0-.99-.05-.47-.05-.93-.14-.82.5-.82 1.11 0 .52.49.77.48.25 1.28.35t1.82.13q1.02.02 2.09.11 1.07.08 2.09.3 1.02.21 1.82.67t1.29 1.25q.48.79.48 2.03 0 1.15-.57 2.24t-1.65 1.94-2.65 1.37-3.58.52q-1.97 0-3.43-.39-1.47-.38-2.43-1.02-.97-.63-1.45-1.47-.48-.83-.48-1.73 0-1.22.74-2.05.74-.82 2.04-1.32-.7-.35-1.11-.95-.41-.59-.41-1.56 0-.39.15-.81.14-.42.42-.82.28-.41.71-.78.42-.36 1-.65-1.33-.72-2.08-1.91-.76-1.19-.76-2.78 0-1.3.52-2.34.52-1.05 1.45-1.79.92-.74 2.19-1.13 1.26-.39 2.76-.39 1.12 0 2.11.23.98.23 1.8.67m7.8-.59h4.22v17.44h-4.22zm4.8-5.09q0 .55-.22 1.02-.22.48-.59.84-.37.35-.86.57-.49.21-1.05.21-.55 0-1.03-.21-.49-.22-.84-.57-.36-.36-.57-.84-.21-.47-.21-1.02 0-.56.21-1.05t.57-.85q.35-.36.84-.57.48-.21 1.03-.21.56 0 1.05.21t.86.57.59.85.22 1.05m7.34 5.85.29 1.38q.53-.53 1.11-.98.59-.45 1.25-.76.65-.32 1.4-.5.75-.17 1.63-.17 1.43 0 2.53.48 1.11.48 1.85 1.36t1.12 2.09q.38 1.22.38 2.68v11.1h-4.2v-11.1q0-1.6-.73-2.47-.73-.88-2.23-.88-1.08 0-2.04.49-.95.5-1.8 1.35v12.61h-4.2v-17.44h2.57q.82 0 1.07.76m18.85 5.95h7.93q0-.81-.23-1.54-.23-.72-.69-1.26-.46-.55-1.17-.86-.7-.32-1.64-.32-1.82 0-2.86 1.04-1.05 1.04-1.34 2.94m10.71 2.54h-10.79q.1 1.34.48 2.32.37.97.98 1.61t1.46.95q.84.32 1.86.32t1.76-.24 1.29-.53.97-.52q.41-.24.8-.24.53 0 .79.39l1.2 1.53q-.69.81-1.56 1.37-.87.55-1.81.88t-1.92.47-1.9.14q-1.82 0-3.38-.61-1.56-.6-2.72-1.78-1.16-1.19-1.82-2.93t-.66-4.04q0-1.78.58-3.35.57-1.58 1.65-2.74t2.64-1.84q1.55-.68 3.51-.68 1.65 0 3.04.52 1.4.53 2.4 1.54t1.57 2.48.57 3.36q0 .95-.2 1.28-.21.34-.79.34m16.6-4.15v7.82q.71.86 1.55 1.22t1.83.36q.95 0 1.72-.36.76-.36 1.3-1.09.53-.73.82-1.84t.29-2.63q0-1.53-.25-2.59-.24-1.06-.7-1.73-.46-.66-1.11-.96-.66-.31-1.49-.31-1.31 0-2.23.55t-1.73 1.56m-.56-4.34.34 1.62q1.07-1.21 2.43-1.96t3.19-.75q1.43 0 2.61.6 1.18.59 2.04 1.73.86 1.13 1.33 2.78.47 1.66.47 3.8 0 1.96-.53 3.62-.53 1.67-1.51 2.89-.97 1.23-2.36 1.92-1.38.69-3.1.69-1.46 0-2.5-.46-1.04-.45-1.85-1.25v7.15h-4.2v-23.14h2.56q.82 0 1.08.76m19.38.29.25 1.97q.82-1.56 1.94-2.45 1.12-.9 2.65-.9 1.21 0 1.94.53l-.27 3.15q-.09.3-.25.43t-.43.13q-.26 0-.76-.09-.5-.08-.98-.08-.69 0-1.24.2-.54.21-.98.59-.43.38-.76.92-.33.55-.62 1.25v10.74h-4.2v-17.44h2.46q.65 0 .91.23.25.23.34.82m9.11-1.05h4.21v17.44h-4.21zm4.79-5.09q0 .55-.22 1.02-.22.48-.59.84-.36.35-.85.57-.5.21-1.06.21-.54 0-1.03-.21-.48-.22-.84-.57-.36-.36-.57-.84-.21-.47-.21-1.02 0-.56.21-1.05t.57-.85.84-.57q.49-.21 1.03-.21.56 0 1.06.21.49.21.85.57.37.36.59.85t.22 1.05m7.91 22.53h-4.2v-17.44h2.56q.82 0 1.08.76l.27 1.29q.46-.51.96-.93.5-.43 1.07-.73.57-.31 1.22-.49.66-.17 1.44-.17 1.65 0 2.71.89t1.59 2.37q.41-.87 1.02-1.49t1.34-1.01 1.56-.58q.82-.18 1.66-.18 1.44 0 2.56.44 1.13.44 1.89 1.29.77.85 1.17 2.07.39 1.23.39 2.81v11.1h-4.19v-11.1q0-1.67-.74-2.51-.73-.84-2.14-.84-.64 0-1.2.22-.55.22-.96.64-.42.41-.66 1.04t-.24 1.45v11.1h-4.21v-11.1q0-1.75-.71-2.55-.7-.8-2.06-.8-.92 0-1.71.45t-1.47 1.23zm33.49-4.5v-2.95q-1.82.09-3.06.32t-1.99.58q-.75.36-1.07.84-.33.47-.33 1.03 0 1.11.66 1.59.65.47 1.71.47 1.29 0 2.23-.47.95-.46 1.85-1.41m-8.88-9.17-.75-1.34q3.01-2.76 7.25-2.76 1.53 0 2.73.51 1.21.5 2.04 1.39.84.89 1.27 2.13t.43 2.72v11.02h-1.9q-.6 0-.92-.18t-.51-.72l-.37-1.26q-.67.6-1.29 1.05-.63.45-1.31.75-.68.31-1.46.47-.77.16-1.71.16-1.1 0-2.04-.3-.93-.29-1.61-.89-.68-.59-1.05-1.48-.38-.88-.38-2.05 0-.67.22-1.32.22-.66.73-1.25.5-.6 1.3-1.12.79-.53 1.96-.92 1.16-.39 2.71-.64t3.54-.3v-1.02q0-1.75-.75-2.59t-2.16-.84q-1.02 0-1.69.24t-1.18.53q-.51.3-.93.54t-.93.24q-.44 0-.74-.23-.31-.23-.5-.54m28.82-3.01.29 1.38q.52-.53 1.11-.98t1.24-.76q.66-.32 1.4-.5.75-.17 1.64-.17 1.42 0 2.53.48 1.1.48 1.84 1.36t1.13 2.09q.38 1.22.38 2.68v11.1h-4.2v-11.1q0-1.6-.73-2.47-.73-.88-2.23-.88-1.09 0-2.04.49-.95.5-1.8 1.35v12.61h-4.2v-17.44h2.57q.81 0 1.07.76m23.25-1.03q1.94 0 3.53.62 1.59.63 2.72 1.79t1.74 2.82q.62 1.67.62 3.72 0 2.08-.62 3.74-.61 1.67-1.74 2.84-1.13 1.18-2.72 1.81t-3.53.63q-1.95 0-3.55-.63t-2.73-1.81q-1.13-1.17-1.75-2.84-.62-1.66-.62-3.74 0-2.05.62-3.72.62-1.66 1.75-2.82t2.73-1.79q1.6-.62 3.55-.62m0 14.73q2.18 0 3.23-1.46 1.04-1.46 1.04-4.28t-1.04-4.3q-1.05-1.48-3.23-1.48-2.21 0-3.27 1.49-1.06 1.48-1.06 4.29 0 2.8 1.06 4.27t3.27 1.47m17.63 3.25q-2.28 0-3.49-1.28-1.22-1.29-1.22-3.55v-9.74h-1.78q-.34 0-.58-.22t-.24-.66v-1.67l2.81-.46.88-4.76q.09-.34.32-.52.24-.19.62-.19h2.17v5.49h4.66v2.99h-4.66v9.45q0 .82.4 1.28t1.1.46q.39 0 .65-.09.27-.1.46-.2.2-.1.35-.2.15-.09.31-.09.18 0 .3.09.12.1.26.28l1.26 2.04q-.92.77-2.11 1.16t-2.47.39m6.97-17.71h4.22v17.44h-4.22zm4.8-5.09q0 .55-.22 1.02-.23.48-.59.84-.37.35-.86.57-.49.21-1.05.21-.55 0-1.03-.21-.49-.22-.84-.57-.36-.36-.57-.84-.22-.47-.22-1.02 0-.56.22-1.05.21-.49.57-.85.35-.36.84-.57.48-.21 1.03-.21.56 0 1.05.21t.86.57q.36.36.59.85.22.49.22 1.05m16.23 5.09v1.73q0 .44-.15.87-.15.42-.41.7l-8.28 10.91h8.59v3.23h-13.47v-1.75q0-.29.14-.69.13-.4.41-.76l8.36-11.03h-8.41v-3.21zm3.23 0h4.22v17.44h-4.22zm4.8-5.09q0 .55-.23 1.02-.22.48-.58.84-.37.35-.86.57-.49.21-1.05.21-.55 0-1.03-.21-.49-.22-.84-.57-.36-.36-.57-.84-.22-.47-.22-1.02 0-.56.22-1.05.21-.49.57-.85.35-.36.84-.57.48-.21 1.03-.21.56 0 1.05.21t.86.57q.36.36.58.85.23.49.23 1.05m12.92 18.03v-2.95q-1.82.09-3.06.32-1.25.23-1.99.58-.75.36-1.07.84-.33.47-.33 1.03 0 1.11.66 1.59.65.47 1.71.47 1.29 0 2.23-.47.94-.46 1.85-1.41m-8.88-9.17-.75-1.34q3.01-2.76 7.25-2.76 1.53 0 2.73.51 1.21.5 2.04 1.39.84.89 1.27 2.13t.43 2.72v11.02h-1.9q-.6 0-.92-.18t-.51-.72l-.37-1.26q-.67.6-1.3 1.05-.62.45-1.3.75-.68.31-1.46.47-.77.16-1.71.16-1.1 0-2.04-.3-.93-.29-1.61-.89-.68-.59-1.06-1.48-.37-.88-.37-2.05 0-.67.22-1.32.22-.66.72-1.25.51-.6 1.3-1.12.8-.53 1.97-.92 1.16-.39 2.71-.64t3.54-.3v-1.02q0-1.75-.75-2.59t-2.16-.84q-1.02 0-1.69.24t-1.18.53q-.51.3-.93.54t-.93.24q-.44 0-.75-.23-.3-.23-.49-.54m28.49 2.94h7.93q0-.81-.23-1.54-.23-.72-.69-1.26-.46-.55-1.17-.86-.7-.32-1.64-.32-1.82 0-2.86 1.04-1.05 1.04-1.34 2.94m10.71 2.54h-10.79q.1 1.34.47 2.32.38.97.99 1.61t1.45.95q.85.32 1.87.32t1.76-.24q.73-.24 1.29-.53.55-.29.97-.52.41-.24.8-.24.53 0 .79.39l1.2 1.53q-.69.81-1.56 1.37-.87.55-1.81.88-.95.33-1.92.47-.98.14-1.9.14-1.82 0-3.38-.61-1.57-.6-2.72-1.78-1.16-1.19-1.82-2.93t-.66-4.04q0-1.78.57-3.35.58-1.58 1.66-2.74t2.64-1.84q1.55-.68 3.51-.68 1.65 0 3.04.52 1.39.53 2.4 1.54 1 1.01 1.57 2.48t.57 3.36q0 .95-.2 1.28-.21.34-.79.34m16.54-9.25h3.32l-6.92 17.44h-3.81l-6.92-17.44h3.47q.48 0 .79.22.32.22.42.56l3.36 9.32q.28.81.48 1.59.2.79.36 1.57.17-.78.37-1.57.21-.78.49-1.59l3.44-9.32q.12-.34.42-.56.31-.22.73-.22m5.68 0h4.22v17.44h-4.22zm4.8-5.09q0 .55-.22 1.02-.23.48-.59.84-.37.35-.86.57-.49.21-1.05.21-.55 0-1.03-.21-.49-.22-.84-.57-.36-.36-.57-.84-.22-.47-.22-1.02 0-.56.22-1.05.21-.49.57-.85.35-.36.84-.57.48-.21 1.03-.21.56 0 1.05.21t.86.57q.36.36.59.85.22.49.22 1.05m14.65 17.36v-7.82q-.71-.87-1.55-1.22-.85-.36-1.82-.36-.95 0-1.71.36-.77.35-1.31 1.08-.55.72-.83 1.83-.29 1.12-.29 2.63 0 1.53.24 2.59.25 1.06.71 1.74.46.67 1.12.97.66.29 1.48.29 1.31 0 2.23-.54.91-.55 1.73-1.55m0-20.09h4.2v25.26h-2.57q-.83 0-1.05-.77l-.36-1.68q-1.05 1.21-2.42 1.96t-3.19.75q-1.43 0-2.62-.6t-2.04-1.73q-.86-1.13-1.33-2.79-.47-1.67-.47-3.81 0-1.94.53-3.6.53-1.67 1.51-2.89.99-1.23 2.36-1.92 1.38-.69 3.1-.69 1.46 0 2.5.46 1.03.46 1.85 1.24zm11.66 14.53h7.92q0-.81-.22-1.54-.23-.72-.69-1.26-.46-.55-1.17-.86-.7-.32-1.64-.32-1.82 0-2.86 1.04-1.05 1.04-1.34 2.94m10.71 2.54h-10.79q.1 1.34.47 2.32.38.97.99 1.61t1.45.95q.84.32 1.86.32t1.76-.24 1.3-.53q.55-.29.97-.52.41-.24.8-.24.53 0 .78.39l1.21 1.53q-.7.81-1.56 1.37-.87.55-1.81.88-.95.33-1.92.47-.98.14-1.9.14-1.82 0-3.38-.61-1.57-.6-2.72-1.78-1.16-1.19-1.82-2.93t-.66-4.04q0-1.78.57-3.35.58-1.58 1.66-2.74t2.64-1.84q1.55-.68 3.51-.68 1.65 0 3.04.52 1.39.53 2.4 1.54 1 1.01 1.57 2.48t.57 3.36q0 .95-.21 1.28-.2.34-.78.34m7.77-8.49.29 1.38q.53-.53 1.11-.98.59-.45 1.25-.76.65-.32 1.4-.5.75-.17 1.63-.17 1.43 0 2.53.48 1.11.48 1.85 1.36t1.12 2.09q.38 1.22.38 2.68v11.1h-4.2v-11.1q0-1.6-.73-2.47-.73-.88-2.23-.88-1.08 0-2.04.49-.95.5-1.8 1.35v12.61h-4.2v-17.44h2.57q.82 0 1.07.76m28.07-.76v1.73q0 .44-.15.87-.16.42-.41.7l-8.28 10.91h8.58v3.23h-13.46v-1.75q0-.29.14-.69.13-.4.4-.76l8.37-11.03h-8.42v-3.21zm12.31 12.94v-2.95q-1.82.09-3.06.32t-1.99.58q-.75.36-1.07.84-.33.47-.33 1.03 0 1.11.66 1.59.65.47 1.71.47 1.29 0 2.23-.47.95-.46 1.85-1.41m-8.88-9.17-.75-1.34q3.01-2.76 7.25-2.76 1.53 0 2.73.51 1.21.5 2.04 1.39.84.89 1.27 2.13t.43 2.72v11.02h-1.9q-.6 0-.92-.18t-.51-.72l-.37-1.26q-.67.6-1.29 1.05-.63.45-1.31.75-.68.31-1.46.47-.77.16-1.71.16-1.1 0-2.04-.3-.93-.29-1.61-.89-.68-.59-1.05-1.48-.38-.88-.38-2.05 0-.67.22-1.32.22-.66.73-1.25.5-.6 1.3-1.12.79-.53 1.96-.92 1.16-.39 2.71-.64t3.54-.3v-1.02q0-1.75-.75-2.59t-2.16-.84q-1.02 0-1.69.24t-1.18.53q-.51.3-.93.54t-.93.24q-.44 0-.74-.23-.31-.23-.5-.54"/></svg>