<svg xmlns="http://www.w3.org/2000/svg" width="715" height="480" viewBox="0 0 715 480"><rect width="100%" height="100%" fill="#585858"/><path fill="#fff" d="M170.195 216.985h6.16v37.6h-3.59q-.83 0-1.39-.27-.56-.28-1.08-.93l-19.63-25.06q.16 1.72.16 3.17v23.09h-6.16v-37.6h3.66q.44 0 .77.04.32.04.57.16t.48.34q.24.22.52.58l19.71 25.17q-.08-.91-.13-1.79-.05-.89-.05-1.64zm25.32 10.51q2.97 0 5.4.96t4.16 2.73 2.66 4.32q.94 2.54.94 5.69 0 3.17-.94 5.72-.93 2.55-2.66 4.34-1.73 1.8-4.16 2.76t-5.4.96q-2.99 0-5.43-.96-2.45-.96-4.18-2.76-1.72-1.79-2.67-4.34t-.95-5.72q0-3.15.95-5.69.95-2.55 2.67-4.32 1.73-1.77 4.18-2.73 2.44-.96 5.43-.96m0 22.54q3.33 0 4.93-2.24 1.6-2.23 1.6-6.55 0-4.31-1.6-6.58-1.6-2.26-4.93-2.26-3.38 0-5 2.28-1.63 2.27-1.63 6.56t1.63 6.54q1.62 2.25 5 2.25m26.96 4.97q-3.48 0-5.34-1.97-1.86-1.96-1.86-5.42v-14.9h-2.73q-.52 0-.88-.33-.37-.34-.37-1.02v-2.55l4.29-.7 1.36-7.28q.13-.52.49-.8.36-.29.94-.29h3.32v8.4h7.13v4.57h-7.13v14.46q0 1.25.61 1.95.62.7 1.68.7.6 0 1-.14.41-.14.7-.3.3-.16.54-.3.23-.14.47-.14.28 0 .46.14.19.14.39.43l1.93 3.12q-1.41 1.17-3.23 1.77t-3.77.6m10.66-27.1h6.45v26.68h-6.45zm7.34-7.77q0 .83-.34 1.56t-.9 1.27q-.56.55-1.31.87-.76.33-1.61.33-.84 0-1.58-.33-.74-.32-1.28-.87-.55-.54-.88-1.27-.32-.73-.32-1.56 0-.86.32-1.61.33-.76.88-1.3.54-.55 1.28-.87.74-.33 1.58-.33.85 0 1.61.33.75.32 1.31.87.56.54.9 1.3.34.75.34 1.61m24.83 7.77v2.66q0 .67-.24 1.32-.23.65-.62 1.07l-12.66 16.69h13.13v4.94h-20.6v-2.68q0-.44.21-1.05t.63-1.16l12.79-16.87h-12.87v-4.92zm4.94 0h6.44v26.68h-6.44zm7.33-7.77q0 .83-.34 1.56t-.9 1.27q-.56.55-1.31.87-.75.33-1.61.33-.83 0-1.58-.33-.74-.32-1.28-.87-.55-.54-.87-1.27-.33-.73-.33-1.56 0-.86.33-1.61.32-.76.87-1.3.54-.55 1.28-.87.75-.33 1.58-.33.86 0 1.61.33.75.32 1.31.87.56.54.9 1.3.34.75.34 1.61m19.76 27.56v-4.5q-2.78.13-4.68.48t-3.04.9q-1.15.55-1.64 1.27-.5.73-.5 1.59 0 1.69 1 2.42 1.01.73 2.62.73 1.97 0 3.42-.72 1.44-.71 2.82-2.17m-13.57-14.01-1.15-2.06q4.6-4.21 11.08-4.21 2.34 0 4.18.77 1.85.76 3.12 2.13 1.28 1.36 1.94 3.26t.66 4.16v16.85h-2.91q-.91 0-1.4-.27-.5-.28-.78-1.11l-.57-1.92q-1.02.91-1.98 1.6t-2 1.15q-1.04.47-2.23.72-1.18.25-2.61.25-1.69 0-3.12-.46-1.43-.45-2.47-1.36t-1.61-2.27q-.57-1.35-.57-3.14 0-1.02.34-2.02.33-1 1.1-1.91t1.99-1.71q1.22-.81 3-1.41t4.15-.97q2.37-.38 5.41-.46v-1.56q0-2.68-1.15-3.96-1.14-1.29-3.3-1.29-1.56 0-2.59.36-1.02.37-1.8.82-.78.46-1.42.82-.64.37-1.42.37-.67 0-1.14-.36-.47-.35-.75-.81m52.59 14.01v-4.5q-2.78.13-4.68.48-1.89.35-3.04.9-1.14.55-1.64 1.27-.49.73-.49 1.59 0 1.69 1 2.42t2.61.73q1.98 0 3.42-.72 1.45-.71 2.82-2.17m-13.57-14.01-1.14-2.06q4.6-4.21 11.07-4.21 2.34 0 4.19.77 1.85.76 3.12 2.13 1.27 1.36 1.94 3.26.66 1.9.66 4.16v16.85h-2.91q-.91 0-1.41-.27-.49-.28-.78-1.11l-.57-1.92q-1.01.91-1.97 1.6-.97.69-2.01 1.15-1.04.47-2.22.72t-2.61.25q-1.69 0-3.12-.46-1.43-.45-2.47-1.36t-1.61-2.27q-.58-1.35-.58-3.14 0-1.02.34-2.02t1.11-1.91q.76-.91 1.99-1.71 1.22-.81 3-1.41t4.15-.97q2.36-.38 5.4-.46v-1.56q0-2.68-1.14-3.96-1.14-1.29-3.3-1.29-1.56 0-2.59.36-1.03.37-1.81.82-.78.46-1.41.82-.64.37-1.42.37-.68 0-1.14-.36-.47-.35-.76-.81m31.54-4.16.39 3.01q1.25-2.39 2.96-3.76 1.72-1.36 4.06-1.36 1.85 0 2.96.81l-.41 4.81q-.13.46-.38.66-.25.19-.66.19-.39 0-1.16-.13t-1.49-.13q-1.07 0-1.9.32-.83.31-1.5.89-.66.59-1.17 1.42-.5.83-.95 1.9v16.43h-6.42v-26.68h3.77q.99 0 1.38.35.39.36.52 1.27m23.48 11.07q1.19 0 2.08-.32.88-.33 1.47-.9.58-.57.88-1.38.3-.8.3-1.77 0-1.97-1.18-3.13-1.19-1.16-3.55-1.16-2.37 0-3.55 1.16t-1.18 3.13q0 .94.29 1.75.3.8.89 1.39.58.58 1.48.91.9.32 2.07.32m7.25 15.19q0-.78-.47-1.28-.46-.49-1.27-.77-.81-.27-1.89-.4-1.07-.13-2.28-.19-1.21-.07-2.5-.12t-2.51-.21q-1.06.6-1.73 1.41-.66.8-.66 1.87 0 .7.35 1.31t1.12 1.05q.77.45 1.99.69 1.22.25 2.99.25 1.79 0 3.09-.27 1.3-.28 2.15-.76.84-.48 1.23-1.14t.39-1.44m-1.27-26.97h7.67v2.4q0 1.14-1.38 1.4l-2.39.44q.54 1.38.54 3.02 0 1.97-.79 3.57t-2.2 2.72q-1.4 1.12-3.31 1.73t-4.12.61q-.78 0-1.51-.08t-1.43-.21q-1.25.76-1.25 1.69 0 .81.74 1.19.74.37 1.97.53 1.22.16 2.78.19 1.56.04 3.2.17 1.63.13 3.19.46 1.56.32 2.79 1.03 1.22.7 1.96 1.91t.74 3.1q0 1.77-.87 3.44-.87 1.66-2.52 2.96t-4.06 2.09q-2.4.8-5.47.8-3.02 0-5.25-.59-2.24-.58-3.72-1.56-1.48-.97-2.21-2.25-.73-1.27-.73-2.65 0-1.87 1.13-3.13t3.11-2.02q-1.07-.54-1.69-1.45-.63-.91-.63-2.4 0-.59.22-1.23.23-.64.65-1.26.43-.63 1.08-1.19.65-.55 1.54-1-2.03-1.09-3.19-2.91-1.15-1.82-1.15-4.26 0-1.98.79-3.58t2.21-2.73 3.35-1.73q1.94-.59 4.23-.59 1.71 0 3.22.35t2.76 1.02m23.53-1.32q2.96 0 5.39.96t4.16 2.73 2.67 4.32q.93 2.54.93 5.69 0 3.17-.93 5.72-.94 2.55-2.67 4.34-1.73 1.8-4.16 2.76t-5.39.96q-2.99 0-5.44-.96-2.44-.96-4.17-2.76-1.73-1.79-2.68-4.34t-.95-5.72q0-3.15.95-5.69.95-2.55 2.68-4.32t4.17-2.73q2.45-.96 5.44-.96m0 22.54q3.33 0 4.92-2.24 1.6-2.23 1.6-6.55 0-4.31-1.6-6.58-1.59-2.26-4.92-2.26-3.38 0-5.01 2.28-1.62 2.27-1.62 6.56t1.62 6.54q1.63 2.25 5.01 2.25m24.49 4.55h-6.42v-26.68h3.92q1.25 0 1.64 1.17l.42 1.98q.7-.78 1.47-1.43.76-.65 1.63-1.12.88-.47 1.88-.74t2.19-.27q2.53 0 4.15 1.36 1.63 1.37 2.43 3.63.63-1.33 1.56-2.28.94-.94 2.06-1.54 1.11-.6 2.37-.89 1.27-.28 2.54-.28 2.21 0 3.93.67 1.71.68 2.88 1.98t1.78 3.17.61 4.29v16.98h-6.42v-16.98q0-2.55-1.12-3.83-1.11-1.29-3.27-1.29-.99 0-1.84.34-.84.34-1.48.97-.63.64-1 1.6-.36.96-.36 2.21v16.98h-6.45v-16.98q0-2.68-1.08-3.9t-3.16-1.22q-1.4 0-2.61.69t-2.25 1.88zm42.2-16.41h12.11q0-1.24-.35-2.35-.35-1.1-1.05-1.94-.7-.83-1.78-1.31t-2.51-.48q-2.78 0-4.38 1.59-1.6 1.58-2.04 4.49m16.38 3.88h-16.51q.15 2.05.73 3.55.57 1.49 1.5 2.47.94.97 2.23 1.45 1.28.48 2.84.48t2.69-.36q1.14-.36 1.98-.81.85-.44 1.48-.8.64-.37 1.24-.37.8 0 1.19.6l1.85 2.34q-1.07 1.25-2.39 2.09-1.33.85-2.77 1.36-1.44.5-2.94.71-1.49.21-2.9.21-2.78 0-5.17-.92-2.39-.93-4.16-2.73-1.77-1.81-2.78-4.48-1.02-2.66-1.02-6.17 0-2.73.89-5.14.88-2.4 2.53-4.18t4.03-2.82 5.37-1.04q2.52 0 4.65.8 2.14.81 3.67 2.36 1.53 1.54 2.4 3.79.88 2.25.88 5.14 0 1.45-.32 1.96-.31.51-1.19.51m11.88-12.98.44 2.11q.81-.81 1.7-1.5.9-.68 1.9-1.17 1-.48 2.15-.75 1.14-.27 2.49-.27 2.19 0 3.88.74t2.82 2.08 1.71 3.2q.59 1.86.59 4.09v16.98h-6.42v-16.98q0-2.44-1.12-3.78t-3.41-1.34q-1.66 0-3.12.75-1.45.76-2.75 2.06v19.29h-6.42v-26.68h3.92q1.25 0 1.64 1.17m32.66 25.93q-3.49 0-5.35-1.97-1.86-1.96-1.86-5.42v-14.9h-2.73q-.52 0-.88-.33-.36-.34-.36-1.02v-2.55l4.29-.7 1.35-7.28q.13-.52.49-.8.37-.29.94-.29h3.33v8.4h7.12v4.57h-7.12v14.46q0 1.25.61 1.95t1.67.7q.6 0 1-.14.41-.14.71-.3t.53-.3.47-.14q.28 0 .47.14.18.14.39.43l1.92 3.12q-1.4 1.17-3.22 1.77t-3.77.6m22.25-27.51q2.97 0 5.4.96t4.16 2.73 2.66 4.32q.94 2.54.94 5.69 0 3.17-.94 5.72-.93 2.55-2.66 4.34-1.73 1.8-4.16 2.76t-5.4.96q-2.99 0-5.43-.96-2.45-.96-4.18-2.76-1.72-1.79-2.67-4.34t-.95-5.72q0-3.15.95-5.69.95-2.55 2.67-4.32 1.73-1.77 4.18-2.73 2.44-.96 5.43-.96m0 22.54q3.33 0 4.93-2.24 1.6-2.23 1.6-6.55 0-4.31-1.6-6.58-1.6-2.26-4.93-2.26-3.38 0-5 2.28-1.63 2.27-1.63 6.56t1.63 6.54q1.62 2.25 5 2.25"/></svg>