<svg xmlns="http://www.w3.org/2000/svg" width="234" height="156" viewBox="0 0 234 156"><rect width="100%" height="100%" fill="#eee"/><path fill="#990000" d="M42.715 73.585v7.23h-1.35v-7.23zm2.66 7.23h-1.24v-5.13h.76q.24 0 .31.22l.08.38q.14-.14.29-.27.14-.12.31-.21.17-.1.36-.15t.42-.05q.49 0 .8.26t.47.7q.12-.25.3-.44.18-.18.39-.3.22-.11.46-.17.24-.05.49-.05.42 0 .75.13t.56.38q.22.25.34.61t.12.82v3.27h-1.24v-3.27q0-.48-.21-.73-.22-.25-.63-.25-.19 0-.35.06-.17.07-.29.19t-.19.31-.07.42v3.27h-1.24v-3.27q0-.51-.21-.74-.21-.24-.61-.24-.27 0-.5.13-.23.14-.43.37zm8.37 0h-1.23v-5.13h.75q.24 0 .32.22l.08.38q.13-.14.28-.27.15-.12.32-.21.16-.1.36-.15.19-.05.42-.05.48 0 .8.26.31.26.46.7.12-.25.3-.44.18-.18.4-.3.21-.11.46-.17.24-.05.48-.05.43 0 .76.13t.55.38q.23.25.35.61.11.36.11.82v3.27h-1.23v-3.27q0-.48-.22-.73-.21-.25-.63-.25-.19 0-.35.06-.16.07-.29.19-.12.12-.19.31t-.07.42v3.27h-1.24v-3.27q0-.51-.2-.74-.21-.24-.61-.24-.27 0-.5.13-.24.14-.44.37zm9.85-1.32v-.87q-.53.02-.9.09-.36.07-.58.17-.22.11-.32.25-.09.14-.09.3 0 .33.19.47t.5.14q.38 0 .66-.14.28-.13.54-.41m-2.61-2.7-.22-.4q.89-.81 2.13-.81.45 0 .81.15.35.15.6.41.24.26.37.63.13.36.13.8v3.24h-.56q-.18 0-.27-.05-.1-.05-.15-.22l-.11-.37q-.2.18-.38.31-.19.13-.39.23-.2.09-.42.13-.23.05-.51.05-.32 0-.6-.09-.27-.09-.47-.26-.2-.18-.31-.43-.11-.26-.11-.61 0-.2.06-.39.07-.19.22-.36.14-.18.38-.34.23-.15.58-.27.34-.11.79-.18.46-.08 1.04-.09v-.3q0-.51-.22-.76t-.63-.25q-.3 0-.5.07t-.35.16q-.15.08-.27.15-.12.08-.27.08-.13 0-.22-.07t-.15-.16m6.85 1.33q.23 0 .4-.06t.29-.18q.11-.11.17-.26.05-.16.05-.34 0-.38-.22-.6-.23-.23-.69-.23-.45 0-.68.23-.23.22-.23.6 0 .18.06.33.06.16.17.27.11.12.29.18.17.06.39.06m1.4 2.92q0-.15-.09-.24-.09-.1-.25-.15-.15-.05-.36-.08t-.44-.04l-.48-.02q-.25-.01-.48-.04-.21.11-.33.27-.13.16-.13.36 0 .13.07.25.06.12.21.2.15.09.38.14.24.05.58.05t.59-.06q.25-.05.42-.14.16-.09.23-.22.08-.13.08-.28m-.25-5.19h1.48v.46q0 .22-.27.28l-.46.08q.11.26.11.58 0 .38-.15.69-.16.31-.43.52t-.63.33q-.37.12-.8.12-.15 0-.29-.02-.14-.01-.27-.04-.24.15-.24.33 0 .15.14.23.14.07.38.1.23.03.53.04.3 0 .62.03.31.02.61.09.3.06.54.19.23.14.38.37.14.23.14.6 0 .34-.17.66t-.48.57q-.32.25-.78.4-.47.15-1.06.15-.58 0-1.01-.11t-.71-.3q-.29-.18-.43-.43t-.14-.51q0-.36.22-.6.22-.25.6-.39-.21-.11-.33-.28t-.12-.46q0-.12.05-.24.04-.12.12-.24t.21-.23q.12-.11.29-.19-.39-.21-.61-.56t-.22-.82q0-.38.15-.69.15-.3.43-.52.27-.22.64-.34.37-.11.81-.11.33 0 .62.07t.53.19m2.3-.17h1.24v5.13h-1.24zm1.41-1.5q0 .17-.07.3-.06.14-.17.25-.11.1-.25.17-.15.06-.31.06t-.3-.06q-.15-.07-.25-.17-.11-.11-.17-.25-.06-.13-.06-.3 0-.16.06-.31.06-.14.17-.25.1-.1.25-.16.14-.07.3-.07t.31.07q.14.06.25.16.11.11.17.25.07.15.07.31m2.16 1.72.08.41q.16-.16.33-.29t.37-.22q.19-.1.41-.15t.48-.05q.42 0 .74.14.33.15.55.4.21.26.33.62.11.35.11.78v3.27h-1.24v-3.27q0-.46-.21-.72-.22-.26-.66-.26-.32 0-.6.14-.28.15-.53.4v3.71h-1.23v-5.13h.75q.24 0 .32.22m5.54 1.75h2.33q0-.24-.06-.45-.07-.21-.21-.37-.13-.16-.34-.25-.21-.1-.48-.1-.54 0-.84.31-.31.31-.4.86m3.15.75h-3.17q.03.39.14.68t.29.48.43.28q.24.09.54.09t.52-.07.38-.15q.16-.09.29-.16.12-.07.23-.07.16 0 .23.11l.36.45q-.21.24-.46.41-.26.16-.53.26-.28.09-.57.14-.29.03-.56.03-.53 0-.99-.17-.46-.18-.8-.53-.34-.34-.54-.86-.19-.51-.19-1.19 0-.52.17-.98.17-.47.49-.81.31-.34.77-.54t1.03-.2q.49 0 .9.16.41.15.7.45.3.3.47.73.16.43.16.98 0 .29-.06.38-.06.1-.23.1m4.62-.75h2.33q0-.24-.06-.45-.07-.21-.21-.37-.13-.16-.34-.25-.21-.1-.48-.1-.54 0-.84.31-.31.31-.4.86m3.15.75h-3.17q.03.39.14.68t.29.48.43.28q.24.09.54.09t.52-.07.38-.15q.16-.09.29-.16.12-.07.23-.07.16 0 .23.11l.36.45q-.21.24-.46.41-.26.16-.53.26-.28.09-.57.14-.29.03-.56.03-.53 0-.99-.17-.46-.18-.8-.53-.34-.34-.54-.86-.19-.51-.19-1.19 0-.52.17-.98.17-.47.49-.81.31-.34.77-.54t1.03-.2q.49 0 .9.16.41.15.7.45.3.3.47.73.16.43.16.98 0 .29-.06.38-.06.1-.23.1m4.87-2.72h.97l-2.03 5.13h-1.12l-2.04-5.13h1.02q.14 0 .24.06.09.07.12.17l.99 2.74q.08.24.14.47t.1.46q.05-.23.11-.46t.15-.47l1.01-2.74q.03-.1.12-.17.09-.06.22-.06m1.67 0h1.24v5.13h-1.24zm1.41-1.5q0 .17-.07.3-.06.14-.17.25-.11.1-.25.17-.15.06-.31.06t-.3-.06q-.15-.07-.25-.17-.11-.11-.17-.25-.06-.13-.06-.3 0-.16.06-.31.06-.14.17-.25.1-.1.25-.16.14-.07.3-.07t.31.07q.14.06.25.16.11.11.17.25.07.15.07.31m4.31 5.11v-2.3q-.21-.26-.46-.36-.25-.11-.53-.11t-.51.11q-.22.1-.38.32-.16.21-.25.54-.08.32-.08.77t.07.76.21.51q.13.2.33.29.19.08.43.08.39 0 .66-.15.27-.17.51-.46m0-5.91h1.23v7.43h-.75q-.25 0-.31-.23l-.11-.49q-.31.36-.71.58-.4.21-.94.21-.42 0-.77-.17-.35-.18-.6-.51t-.39-.82-.14-1.12q0-.57.16-1.06.15-.49.44-.85t.7-.56q.4-.21.91-.21.43 0 .73.14.31.13.55.36zm3.43 4.27h2.33q0-.24-.07-.45t-.2-.37q-.14-.16-.34-.25-.21-.1-.49-.1-.53 0-.84.31t-.39.86m3.15.75h-3.18q.03.39.14.68t.29.48.43.28.55.09.52-.07q.21-.07.38-.15.16-.09.28-.16t.24-.07q.15 0 .23.11l.35.45q-.2.24-.46.41-.25.16-.53.26-.28.09-.56.14-.29.03-.56.03-.54 0-1-.17-.46-.18-.8-.53-.34-.34-.53-.86-.2-.51-.2-1.19 0-.52.17-.98.17-.47.49-.81t.78-.54q.45-.2 1.03-.2.48 0 .89.16.41.15.71.45.29.3.46.73t.17.98q0 .29-.06.38-.06.1-.23.1m2.28-2.5.09.41q.15-.16.33-.29.17-.13.36-.22.19-.1.41-.15t.48-.05q.42 0 .75.14.32.15.54.4.22.26.33.62.11.35.11.78v3.27h-1.23v-3.27q0-.46-.22-.72-.21-.26-.65-.26-.32 0-.6.14-.28.15-.53.4v3.71h-1.24v-5.13h.76q.24 0 .31.22m8.26-.22v.51q0 .13-.05.25-.04.13-.12.21l-2.43 3.21h2.52v.95h-3.96v-.52q0-.08.04-.2.04-.11.12-.22l2.46-3.25h-2.47v-.94zm3.62 3.81v-.87q-.54.02-.9.09-.37.07-.59.17-.22.11-.31.25-.1.14-.1.3 0 .33.2.47.19.14.5.14.38 0 .66-.14.27-.13.54-.41m-2.61-2.7-.22-.4q.88-.81 2.13-.81.45 0 .8.15.36.15.6.41.25.26.38.63.12.36.12.8v3.24h-.56q-.17 0-.27-.05-.09-.05-.15-.22l-.11-.37q-.19.18-.38.31-.18.13-.38.23-.2.09-.43.13-.23.05-.5.05-.33 0-.6-.09-.28-.09-.48-.26-.2-.18-.31-.43-.11-.26-.11-.61 0-.2.07-.39.06-.19.21-.36.15-.18.38-.34.24-.15.58-.27.34-.11.8-.18.45-.08 1.04-.09v-.3q0-.51-.22-.76t-.64-.25q-.3 0-.49.07-.2.07-.35.16-.15.08-.27.15-.13.08-.28.08-.13 0-.22-.07t-.14-.16m10.81-.56-.28.45q-.05.08-.1.11-.06.04-.14.04-.09 0-.19-.06-.11-.04-.24-.11-.14-.06-.31-.11t-.41-.05q-.36 0-.57.15-.21.16-.21.41 0 .17.11.28t.29.2q.17.08.4.15.22.06.46.14.23.08.45.19.23.1.41.26.17.15.28.37t.11.53q0 .37-.13.69-.14.31-.4.54-.26.22-.64.35t-.88.13q-.27 0-.52-.05-.25-.04-.48-.13-.24-.08-.43-.2-.2-.12-.35-.25l.28-.47q.06-.08.13-.13.08-.05.19-.05.12 0 .22.07t.24.14q.13.07.32.14.18.06.46.06.22 0 .38-.05.15-.05.26-.13.1-.09.15-.2.04-.11.04-.24 0-.17-.1-.29-.11-.11-.29-.2t-.4-.15q-.23-.07-.47-.15t-.46-.19q-.23-.11-.41-.27-.18-.17-.28-.4-.11-.25-.11-.59 0-.31.12-.6.13-.28.37-.49.24-.22.61-.34.36-.13.83-.13.53 0 .97.17.43.18.72.46m1.96 1.42h2.33q0-.24-.06-.45-.07-.21-.21-.37-.13-.16-.34-.25-.21-.1-.48-.1-.54 0-.84.31-.31.31-.4.86m3.15.75h-3.17q.03.39.14.68t.29.48.43.28q.24.09.54.09t.52-.07.38-.15q.16-.09.29-.16.12-.07.23-.07.16 0 .23.11l.36.45q-.21.24-.46.41-.26.16-.53.26-.28.09-.57.14-.29.03-.56.03-.53 0-.99-.17-.46-.18-.8-.53-.34-.34-.54-.86-.19-.51-.19-1.19 0-.52.17-.98.17-.47.49-.81.31-.34.77-.54t1.03-.2q.49 0 .9.16.41.15.7.45.3.3.46.73.17.43.17.98 0 .29-.06.38-.06.1-.23.1m5.22-2.09-.33.46q-.05.06-.1.1-.06.04-.16.04-.09 0-.18-.05-.09-.06-.22-.13-.12-.08-.29-.13-.18-.06-.43-.06-.33 0-.57.12-.25.11-.41.34-.16.21-.24.53-.08.31-.08.7 0 .41.09.74.08.31.25.53.16.22.4.33.23.12.53.12.29 0 .48-.08.18-.07.3-.16.13-.09.22-.16t.21-.07q.15 0 .22.11l.36.45q-.21.24-.45.41-.24.16-.49.26-.26.09-.53.14-.28.03-.55.03-.47 0-.89-.17-.42-.18-.74-.52-.31-.34-.5-.83-.18-.5-.18-1.13 0-.56.16-1.04.17-.49.48-.84.32-.35.78-.55.47-.2 1.07-.2.58 0 1.01.18.43.19.78.53m3.09-.71q.57 0 1.04.18.46.19.8.53.33.34.51.83t.18 1.09q0 .61-.18 1.1-.18.5-.51.84-.34.35-.8.53-.47.18-1.04.18-.58 0-1.05-.18t-.8-.53q-.33-.34-.52-.84-.18-.49-.18-1.1 0-.6.18-1.09.19-.49.52-.83t.8-.53q.47-.18 1.05-.18m0 4.33q.64 0 .95-.42.3-.44.3-1.26 0-.84-.3-1.27-.31-.43-.95-.43-.65 0-.96.43-.32.44-.32 1.27 0 .82.32 1.25.31.43.96.43m4.54-4.03.09.41q.15-.16.33-.29.17-.13.36-.22.19-.1.41-.15t.48-.05q.42 0 .75.14.32.15.54.4.22.26.33.62.11.35.11.78v3.27h-1.23v-3.27q0-.46-.22-.72-.21-.26-.65-.26-.32 0-.6.14-.28.15-.53.4v3.71h-1.24v-5.13h.76q.24 0 .31.22m7.79 3.39v-2.3q-.21-.26-.45-.36-.25-.11-.54-.11-.28 0-.5.11-.23.1-.39.32-.16.21-.24.54-.09.32-.09.77t.08.76q.07.31.2.51.14.2.33.29.2.08.44.08.38 0 .65-.15.27-.17.51-.46m0-5.91h1.24v7.43h-.76q-.24 0-.31-.23l-.1-.49q-.31.36-.72.58-.4.21-.93.21-.42 0-.77-.17-.35-.18-.6-.51-.26-.33-.39-.82-.14-.49-.14-1.12 0-.57.15-1.06.16-.49.45-.85t.69-.56q.41-.21.91-.21.43 0 .74.14.3.13.54.36zm4.73 2.22q.57 0 1.03.18.47.19.8.53.34.34.52.83t.18 1.09q0 .61-.18 1.1-.18.5-.52.84-.33.35-.8.53-.46.18-1.03.18-.58 0-1.05-.18t-.8-.53q-.33-.34-.52-.84-.18-.49-.18-1.1 0-.6.18-1.09.19-.49.52-.83t.8-.53q.47-.18 1.05-.18m0 4.33q.64 0 .94-.42.31-.44.31-1.26 0-.84-.31-1.27-.3-.43-.94-.43-.65 0-.97.43-.31.44-.31 1.27 0 .82.31 1.25.32.43.97.43m7.14-2.75v2.3q.21.26.45.36.25.11.54.11.28 0 .51-.11.22-.1.38-.32t.24-.54q.09-.33.09-.77 0-.46-.08-.77-.07-.31-.2-.51-.14-.19-.33-.28t-.44-.09q-.38 0-.65.16t-.51.46m-.17-1.28.1.48q.32-.36.72-.57.4-.23.94-.23.42 0 .76.18.35.17.6.51.26.33.39.82.14.49.14 1.12 0 .57-.15 1.06-.16.49-.45.85-.28.36-.69.56t-.91.2q-.43 0-.74-.13-.3-.13-.54-.36v2.1h-1.24v-6.81h.76q.24 0 .31.22m4.65-.22h1.24v5.13h-1.24zm1.41-1.5q0 .17-.06.3-.07.14-.18.25-.1.1-.25.17-.14.06-.31.06-.16 0-.3-.06-.14-.07-.25-.17-.1-.11-.17-.25-.06-.13-.06-.3 0-.16.06-.31.07-.14.17-.25.11-.1.25-.16.14-.07.3-.07.17 0 .31.07.15.06.25.16.11.11.18.25.06.15.06.31m3.8 5.31v-.87q-.53.02-.9.09-.36.07-.58.17-.22.11-.32.25-.09.14-.09.3 0 .33.19.47t.5.14q.38 0 .66-.14.28-.13.54-.41m-2.61-2.7-.22-.4q.89-.81 2.13-.81.45 0 .81.15.35.15.6.41.24.26.37.63.13.36.13.8v3.24h-.56q-.18 0-.27-.05-.1-.05-.15-.22l-.11-.37q-.2.18-.38.31-.19.13-.39.23-.2.09-.43.13-.22.05-.5.05-.32 0-.6-.09-.27-.09-.47-.26-.2-.18-.31-.43-.11-.26-.11-.61 0-.2.06-.39.07-.19.21-.36.15-.18.39-.34.23-.15.57-.27.35-.11.8-.18.46-.08 1.04-.09v-.3q0-.51-.22-.76t-.63-.25q-.3 0-.5.07t-.35.16q-.15.08-.27.15-.12.08-.27.08-.13 0-.22-.07t-.15-.16m6.05-.89.08.41q.16-.16.33-.29t.36-.22q.2-.1.42-.15t.48-.05q.42 0 .74.14.33.15.54.4.22.26.33.62.12.35.12.78v3.27h-1.24v-3.27q0-.46-.21-.72-.22-.26-.66-.26-.32 0-.6.14-.28.15-.53.4v3.71h-1.23v-5.13h.75q.24 0 .32.22m6.84-.3q.57 0 1.04.18.46.19.79.53.34.34.52.83t.18 1.09q0 .61-.18 1.1-.18.5-.52.84-.33.35-.79.53-.47.18-1.04.18-.58 0-1.05-.18t-.8-.53q-.33-.34-.52-.84-.18-.49-.18-1.1 0-.6.18-1.09.19-.49.52-.83t.8-.53q.47-.18 1.05-.18m0 4.33q.64 0 .94-.42.31-.44.31-1.26 0-.84-.31-1.27-.3-.43-.94-.43-.65 0-.96.43-.32.44-.32 1.27 0 .82.32 1.25.31.43.96.43"/></svg>