<svg xmlns="http://www.w3.org/2000/svg" width="288" height="179" viewBox="0 0 288 179"><rect width="100%" height="100%" fill="#eee"/><path fill="#990000" d="M54.86 84.195v8.68h-1.62v-8.68zm3.19 8.68h-1.48v-6.16h.9q.29 0 .38.27l.1.46q.16-.18.34-.33.17-.15.37-.26t.44-.17q.23-.06.5-.06.58 0 .96.31.37.32.56.84.14-.31.36-.53.22-.21.47-.35.26-.14.55-.21.29-.06.59-.06.51 0 .9.15.4.16.67.46t.41.73.14.99v3.92h-1.48v-3.92q0-.59-.26-.88-.26-.3-.75-.3-.23 0-.43.08-.19.08-.34.22-.15.15-.23.37t-.08.51v3.92h-1.49v-3.92q0-.62-.25-.9t-.73-.28q-.32 0-.6.16t-.52.43zm10.05 0h-1.48v-6.16h.9q.29 0 .38.27l.1.46q.16-.18.34-.33.17-.15.37-.26t.44-.17q.23-.06.5-.06.58 0 .96.31.37.32.56.84.14-.31.36-.53.22-.21.47-.35.26-.14.55-.21.29-.06.59-.06.51 0 .9.15.4.16.67.46t.41.73.14.99v3.92h-1.48v-3.92q0-.59-.26-.88-.26-.3-.75-.3-.23 0-.43.08-.19.08-.34.22-.15.15-.23.37t-.08.51v3.92H70.2v-3.92q0-.62-.25-.9t-.73-.28q-.32 0-.6.16t-.52.43zm11.82-1.59v-1.04q-.64.03-1.08.11t-.7.21q-.27.13-.38.29-.12.17-.12.37 0 .39.24.56.23.17.6.17.45 0 .79-.17.33-.16.65-.5m-3.13-3.23-.27-.48q1.06-.97 2.56-.97.54 0 .96.18.43.17.72.49.3.31.45.75t.15.96v3.89h-.67q-.21 0-.32-.06-.12-.07-.18-.26l-.13-.44q-.24.21-.46.37t-.46.26q-.24.11-.51.17-.28.06-.61.06-.39 0-.72-.11-.33-.1-.57-.31t-.37-.53q-.13-.31-.13-.72 0-.24.08-.47.07-.23.25-.44t.46-.39q.28-.19.69-.33t.96-.22q.55-.09 1.25-.11v-.36q0-.62-.27-.91-.26-.3-.76-.3-.36 0-.59.08-.24.09-.42.19-.18.11-.33.19-.15.09-.33.09-.15 0-.26-.08-.11-.09-.17-.19m8.22 1.59q.27 0 .48-.07.2-.08.34-.21.13-.13.2-.32.07-.18.07-.41 0-.45-.27-.72-.28-.27-.82-.27-.55 0-.82.27-.28.27-.28.72 0 .22.07.41.07.18.21.32.13.13.34.21.21.07.48.07m1.67 3.51q0-.18-.11-.3-.11-.11-.29-.18-.19-.06-.44-.09t-.52-.04q-.28-.02-.58-.03t-.58-.05q-.25.14-.4.33-.15.18-.15.43 0 .16.08.3t.26.24q.17.11.46.16.28.06.69.06t.71-.06q.3-.07.5-.18.19-.11.28-.26t.09-.33m-.29-6.23h1.77v.56q0 .26-.32.32l-.55.1q.12.32.12.7 0 .45-.18.82t-.51.63q-.32.26-.76.4t-.95.14q-.18 0-.35-.02t-.33-.05q-.29.18-.29.39 0 .19.17.28.17.08.45.12.29.04.65.04.36.01.73.04.38.03.74.11.36.07.64.24.29.16.46.44t.17.71q0 .41-.2.8-.2.38-.58.68-.39.3-.94.48-.56.19-1.26.19t-1.22-.14q-.51-.13-.85-.36-.35-.22-.51-.52-.17-.29-.17-.61 0-.43.26-.72t.72-.47q-.25-.12-.39-.33-.15-.21-.15-.56 0-.13.05-.28t.15-.29q.1-.15.25-.28.15-.12.36-.23-.47-.25-.74-.67t-.27-.98q0-.46.19-.83.18-.37.51-.63.32-.26.77-.4.45-.13.98-.13.39 0 .74.08t.64.23m2.75-.21h1.49v6.16h-1.49zm1.69-1.79q0 .19-.08.36-.07.17-.2.29-.13.13-.31.21-.17.07-.37.07-.19 0-.36-.07-.17-.08-.3-.21-.12-.12-.2-.29-.07-.17-.07-.36 0-.2.07-.37.08-.18.2-.3.13-.13.3-.2.17-.08.36-.08.2 0 .37.08.18.07.31.2.13.12.2.3.08.17.08.37m2.59 2.06.11.49q.18-.19.39-.35.21-.15.44-.27.23-.11.49-.17.27-.06.58-.06.5 0 .89.17t.65.48.4.74q.13.43.13.94v3.92h-1.48v-3.92q0-.56-.26-.87-.25-.31-.78-.31-.39 0-.72.17-.34.18-.64.48v4.45h-1.48v-6.16h.91q.28 0 .37.27m6.66 2.1h2.79q0-.28-.08-.54-.08-.25-.24-.45-.16-.19-.41-.3t-.58-.11q-.64 0-1.01.37-.37.36-.47 1.03m3.78.9h-3.81q.03.47.17.82.13.34.34.57.22.22.52.33.29.11.65.11t.63-.08q.26-.08.45-.19.2-.1.34-.18.15-.09.29-.09.18 0 .27.14l.43.54q-.25.29-.55.49-.31.19-.64.31-.33.11-.68.16-.34.05-.67.05-.64 0-1.19-.21-.55-.22-.96-.63-.41-.42-.64-1.04-.24-.61-.24-1.42 0-.63.21-1.19.2-.55.58-.96t.93-.65 1.24-.24q.58 0 1.07.18.5.19.85.55.35.35.56.87.2.52.2 1.19 0 .33-.08.45-.07.12-.27.12m5.54-.9h2.8q0-.28-.08-.54-.08-.25-.25-.45-.16-.19-.41-.3t-.58-.11q-.64 0-1.01.37-.37.36-.47 1.03m3.78.9h-3.81q.04.47.17.82.13.34.35.57.21.22.51.33t.66.11.62-.08.46-.19l.34-.18q.14-.09.28-.09.19 0 .28.14l.42.54q-.24.29-.55.49-.3.19-.64.31-.33.11-.67.16-.35.05-.67.05-.65 0-1.2-.21-.55-.22-.96-.63-.41-.42-.64-1.04-.23-.61-.23-1.42 0-.63.2-1.19.2-.55.59-.96.38-.41.93-.65.54-.24 1.23-.24.59 0 1.08.18.49.19.84.55.36.35.56.87t.2 1.19q0 .33-.07.45t-.28.12m5.84-3.27h1.17l-2.44 6.16h-1.35l-2.44-6.16h1.23q.16 0 .28.08.11.08.14.2l1.19 3.29q.1.29.17.56.07.28.12.55.06-.27.14-.55.07-.27.17-.56l1.21-3.29q.04-.12.15-.2t.26-.08m2 0h1.49v6.16h-1.49zm1.7-1.79q0 .19-.08.36t-.21.29q-.13.13-.3.21-.18.07-.37.07-.2 0-.37-.07-.17-.08-.29-.21-.13-.12-.2-.29-.08-.17-.08-.36 0-.2.08-.37.07-.18.2-.3.12-.13.29-.2.17-.08.37-.08.19 0 .37.08.17.07.3.2.13.12.21.3.08.17.08.37m5.17 6.13v-2.76q-.25-.31-.55-.44-.3-.12-.64-.12t-.61.12q-.27.13-.46.39-.19.25-.29.64-.1.4-.1.93 0 .54.08.91.09.38.25.62.16.23.4.34.23.1.52.1.46 0 .79-.19.32-.19.61-.54m0-7.1h1.48v8.92h-.91q-.29 0-.37-.27l-.12-.59q-.38.42-.86.69-.48.26-1.12.26-.51 0-.93-.21t-.72-.61-.47-.99q-.16-.58-.16-1.34 0-.68.18-1.27.19-.59.54-1.02.34-.43.83-.68.49-.24 1.09-.24.52 0 .88.16.37.16.66.44zm4.11 5.13h2.8q0-.28-.08-.54-.08-.25-.24-.45-.17-.19-.41-.3-.25-.11-.58-.11-.65 0-1.01.37-.37.36-.48 1.03m3.78.9h-3.81q.04.47.17.82.13.34.35.57.22.22.51.33.3.11.66.11t.62-.08.46-.19l.34-.18q.15-.09.28-.09.19 0 .28.14l.43.54q-.25.29-.56.49-.3.19-.63.31-.34.11-.68.16-.35.05-.67.05-.64 0-1.2-.21-.55-.22-.96-.63-.4-.42-.64-1.04-.23-.61-.23-1.42 0-.63.2-1.19.21-.55.59-.96t.93-.65 1.24-.24q.58 0 1.07.18.49.19.85.55.35.35.55.87t.2 1.19q0 .33-.07.45t-.28.12m2.75-3 .1.49q.18-.19.39-.35.21-.15.44-.27.23-.11.49-.17.27-.06.58-.06.5 0 .89.17t.66.48q.26.31.39.74.14.43.14.94v3.92h-1.49v-3.92q0-.56-.25-.87-.26-.31-.79-.31-.38 0-.72.17-.34.18-.64.48v4.45h-1.48v-6.16h.91q.29 0 .38.27m9.9-.27v.62q0 .15-.05.3-.06.15-.15.25l-2.92 3.85h3.03v1.14h-4.75v-.62q0-.1.05-.24t.14-.27l2.95-3.89h-2.97v-1.14zm4.35 4.57v-1.04q-.65.03-1.08.11-.44.08-.71.21-.26.13-.37.29-.12.17-.12.37 0 .39.23.56t.61.17q.45 0 .79-.17.33-.16.65-.5m-3.14-3.23-.26-.48q1.06-.97 2.56-.97.54 0 .96.18.43.17.72.49.3.31.45.75t.15.96v3.89h-.67q-.21 0-.32-.06-.12-.07-.18-.26l-.14-.44q-.23.21-.45.37t-.46.26q-.24.11-.52.17-.27.06-.6.06-.39 0-.72-.11-.33-.1-.57-.31t-.37-.53q-.13-.31-.13-.72 0-.24.07-.47.08-.23.26-.44t.46-.39q.28-.19.69-.33t.96-.22q.54-.09 1.25-.11v-.36q0-.62-.27-.91-.26-.3-.76-.3-.36 0-.6.08-.23.09-.41.19-.18.11-.33.19-.15.09-.33.09-.15 0-.26-.08-.11-.09-.18-.19m12.98-.67-.33.53q-.06.1-.13.14t-.17.04q-.11 0-.23-.06l-.28-.14q-.17-.07-.37-.13-.21-.06-.49-.06-.44 0-.69.18-.25.19-.25.49 0 .2.13.33.13.14.34.24.22.1.49.18t.55.18q.27.1.54.22t.49.31q.21.19.34.45.13.27.13.64 0 .44-.16.82-.16.37-.47.65-.31.27-.77.42-.46.16-1.06.16-.32 0-.62-.06-.31-.06-.58-.16-.28-.1-.52-.24t-.42-.3l.34-.56q.07-.11.16-.16t.23-.05.26.07q.12.08.28.17.17.09.39.17.21.08.55.08.26 0 .45-.07.19-.06.32-.16.12-.1.18-.24.05-.13.05-.28 0-.21-.13-.35t-.34-.24-.48-.18q-.28-.08-.56-.18-.29-.1-.56-.23-.27-.12-.49-.32-.21-.2-.34-.49t-.13-.69q0-.38.15-.72.15-.35.44-.6.29-.26.73-.41.43-.15 1-.15.64 0 1.16.21t.87.55m2.35 1.7h2.8q0-.28-.08-.54-.08-.25-.24-.45-.17-.19-.41-.3-.25-.11-.58-.11-.65 0-1.01.37-.37.36-.48 1.03m3.78.9h-3.81q.04.47.17.82.13.34.35.57.22.22.51.33.3.11.66.11t.62-.08.46-.19l.34-.18q.15-.09.28-.09.19 0 .28.14l.43.54q-.25.29-.56.49-.3.19-.63.31-.34.11-.68.16-.35.05-.67.05-.64 0-1.2-.21-.55-.22-.96-.63-.4-.42-.64-1.04-.23-.61-.23-1.42 0-.63.2-1.19.21-.55.59-.96t.93-.65 1.24-.24q.58 0 1.07.18.49.19.85.55.35.35.55.87t.2 1.19q0 .33-.07.45t-.28.12m6.26-2.5-.39.54q-.06.08-.13.13-.06.05-.18.05-.11 0-.22-.07t-.26-.16-.36-.15q-.2-.07-.51-.07-.39 0-.68.14-.3.14-.49.4-.2.27-.29.64-.1.38-.1.85 0 .49.11.88.1.38.3.64t.48.4q.28.13.63.13.36 0 .58-.09.22-.08.37-.19.15-.1.26-.19t.25-.09q.18 0 .27.14l.42.54q-.24.29-.53.49-.29.19-.6.31-.31.11-.63.16-.33.05-.66.05-.57 0-1.07-.21-.5-.22-.88-.62-.38-.41-.6-1t-.22-1.35q0-.68.2-1.26.19-.58.57-1t.94-.66q.55-.24 1.28-.24.69 0 1.21.22t.93.64m3.71-.86q.68 0 1.25.22.56.22.96.63.39.41.61 1 .22.58.22 1.31t-.22 1.32-.61 1q-.4.42-.96.64-.57.22-1.25.22-.69 0-1.25-.22-.57-.22-.97-.64-.4-.41-.61-1-.22-.59-.22-1.32t.22-1.31q.21-.59.61-1t.97-.63q.56-.22 1.25-.22m0 5.2q.77 0 1.14-.52.37-.51.37-1.51 0-.99-.37-1.52-.37-.52-1.14-.52-.78 0-1.15.53-.38.52-.38 1.51t.38 1.51q.37.52 1.15.52m5.45-4.84.11.49q.18-.19.39-.35.21-.15.44-.27.23-.11.49-.17.27-.06.58-.06.5 0 .89.17t.65.48.4.74q.13.43.13.94v3.92h-1.48v-3.92q0-.56-.26-.87-.25-.31-.78-.31-.39 0-.72.17-.34.18-.64.48v4.45h-1.48v-6.16h.91q.28 0 .37.27m9.35 4.07v-2.76q-.25-.31-.55-.44-.29-.12-.64-.12-.33 0-.6.12-.27.13-.46.39-.2.25-.3.64-.1.4-.1.93 0 .54.09.91.08.38.25.62.16.23.39.34.24.1.52.1.47 0 .79-.19t.61-.54m0-7.1H195v8.92h-.9q-.3 0-.37-.27l-.13-.59q-.37.42-.85.69-.49.26-1.13.26-.5 0-.92-.21t-.73-.61q-.3-.4-.46-.99-.17-.58-.17-1.34 0-.68.19-1.27.18-.59.53-1.02t.83-.68q.49-.24 1.1-.24.51 0 .88.16.36.16.65.44zm5.67 2.67q.69 0 1.25.22t.96.63.61 1q.22.58.22 1.31t-.22 1.32q-.21.59-.61 1-.4.42-.96.64t-1.25.22-1.25-.22q-.57-.22-.96-.64-.4-.41-.62-1t-.22-1.32.22-1.31q.22-.59.62-1 .39-.41.96-.63.56-.22 1.25-.22m0 5.2q.77 0 1.14-.52.37-.51.37-1.51 0-.99-.37-1.52-.37-.52-1.14-.52-.78 0-1.15.53-.38.52-.38 1.51t.38 1.51q.37.52 1.15.52m8.57-3.31v2.76q.25.31.55.44.3.12.64.12t.61-.12q.27-.13.46-.39t.29-.65.1-.93-.08-.91q-.09-.38-.25-.61-.17-.23-.4-.34t-.52-.11q-.46 0-.79.19-.32.2-.61.55m-.2-1.53.12.57q.38-.42.86-.69.48-.26 1.13-.26.5 0 .92.21t.72.61.47.98q.16.59.16 1.34 0 .69-.18 1.28-.19.59-.53 1.02-.35.43-.84.68-.49.24-1.09.24-.52 0-.89-.16-.36-.16-.65-.44v2.52h-1.48v-8.17h.9q.29 0 .38.27m5.58-.27h1.49v6.16h-1.49zm1.69-1.79q0 .19-.07.36-.08.17-.21.29-.13.13-.3.21-.18.07-.38.07-.19 0-.36-.07-.17-.08-.3-.21-.12-.12-.2-.29-.07-.17-.07-.36 0-.2.07-.37.08-.18.2-.3.13-.13.3-.2.17-.08.36-.08.2 0 .38.08.17.07.3.2.13.12.21.3.07.17.07.37m4.56 6.36v-1.04q-.64.03-1.08.11-.43.08-.7.21-.26.13-.38.29-.11.17-.11.37 0 .39.23.56t.6.17q.46 0 .79-.17.34-.16.65-.5m-3.13-3.23-.26-.48q1.06-.97 2.55-.97.54 0 .97.18.43.17.72.49.29.31.45.75.15.44.15.96v3.89h-.67q-.21 0-.33-.06-.11-.07-.18-.26l-.13-.44q-.23.21-.45.37-.23.16-.47.26-.24.11-.51.17t-.6.06q-.39 0-.72-.11-.33-.1-.57-.31t-.37-.53q-.14-.31-.14-.72 0-.24.08-.47t.26-.44q.17-.21.46-.39.28-.19.69-.33t.96-.22q.54-.09 1.24-.11v-.36q0-.62-.26-.91-.26-.3-.76-.3-.36 0-.6.08-.24.09-.42.19-.18.11-.32.19-.15.09-.33.09-.16 0-.26-.08-.11-.09-.18-.19m7.26-1.07.1.49q.18-.19.39-.35.21-.15.44-.27.23-.11.49-.17.27-.06.58-.06.5 0 .89.17t.66.48q.26.31.39.74.14.43.14.94v3.92h-1.49v-3.92q0-.56-.25-.87-.26-.31-.79-.31-.38 0-.72.17-.34.18-.64.48v4.45h-1.48v-6.16h.91q.29 0 .38.27m8.2-.36q.69 0 1.25.22t.96.63.61 1q.22.58.22 1.31t-.22 1.32q-.21.59-.61 1-.4.42-.96.64t-1.25.22-1.25-.22-.96-.64q-.4-.41-.62-1t-.22-1.32.22-1.31q.22-.59.62-1t.96-.63 1.25-.22m0 5.2q.77 0 1.14-.52.37-.51.37-1.51 0-.99-.37-1.52-.37-.52-1.14-.52-.78 0-1.15.53-.38.52-.38 1.51t.38 1.51q.37.52 1.15.52"/></svg>