<svg xmlns="http://www.w3.org/2000/svg" width="260" height="174" viewBox="0 0 260 174"><rect width="100%" height="100%" fill="#555"/><path fill="#fff" d="M61.415 85.675v5.89h-2.41v-5.29q0-1.14-.4-1.66t-1.1-.52q-.36 0-.74.14-.37.15-.71.41-.33.26-.6.62t-.4.79v5.51h-2.41v-9.43h2.18v1.74q.52-.9 1.51-1.4t2.23-.5q.89 0 1.44.32.56.32.87.85.3.52.42 1.18.12.67.12 1.35m6.46 6.07q-1.15 0-2.07-.4-.92-.39-1.56-1.07-.64-.67-.98-1.55-.34-.89-.34-1.86 0-.99.34-1.87t.98-1.56q.64-.67 1.56-1.07.92-.39 2.07-.39t2.06.39q.91.4 1.55 1.07.64.68.98 1.56t.34 1.87q0 .97-.34 1.86-.34.88-.97 1.55-.63.68-1.55 1.07-.92.4-2.07.4m-2.47-4.88q0 .63.19 1.14.19.52.53.9.33.37.78.58t.97.21.97-.21.79-.58q.33-.38.52-.9.19-.53.19-1.16 0-.61-.19-1.13t-.52-.9q-.34-.38-.79-.59-.45-.2-.97-.2t-.97.21q-.45.22-.78.6-.34.38-.53.9t-.19 1.13m14.06 2.31.49 1.9q-.49.22-1.19.44-.7.21-1.48.21-.5 0-.94-.12-.44-.13-.77-.41-.34-.28-.54-.72-.19-.44-.19-1.07v-5.42h-1.25v-1.85h1.25v-3.06h2.41v3.06h1.98v1.85h-1.98v4.61q0 .5.26.71t.64.21.74-.13q.36-.12.57-.21m4.16 2.39h-2.41v-9.43h2.41zm0-10.75h-2.41v-2.39h2.41zm1.55 10.75v-1.48l5.25-6.26h-5.04v-1.69h7.58v1.47l-5.22 6.27h5.31v1.69zm11.91 0h-2.41v-9.43h2.41zm0-10.75h-2.41v-2.39h2.41zm4.76 10.93q-.69 0-1.28-.23-.6-.22-1.03-.63-.43-.4-.67-.94-.25-.54-.25-1.19 0-.66.3-1.23t.83-.96q.53-.4 1.27-.63.74-.22 1.62-.22.63 0 1.23.11t1.07.3v-.54q0-.93-.53-1.44-.53-.5-1.57-.5-.76 0-1.48.27t-1.48.79l-.73-1.53q1.81-1.2 3.92-1.2 2.03 0 3.16.99 1.12 1 1.12 2.89v2.94q0 .38.14.54.13.16.44.18v2.05q-.61.13-1.06.13-.69 0-1.05-.31-.37-.31-.46-.81l-.06-.52q-.63.83-1.53 1.26t-1.92.43m.68-1.76q.61 0 1.16-.22t.86-.58q.39-.3.39-.68v-1.08q-.43-.16-.93-.26-.51-.1-.98-.1-.93 0-1.53.42-.59.43-.59 1.07 0 .62.47 1.02.47.41 1.15.41m13.97 1.76q-.69 0-1.28-.23-.59-.22-1.03-.63-.43-.4-.67-.94t-.24-1.19q0-.66.29-1.23.3-.57.83-.96.53-.4 1.27-.63.74-.22 1.62-.22.63 0 1.23.11.61.11 1.07.3v-.54q0-.93-.53-1.44-.53-.5-1.57-.5-.76 0-1.48.27t-1.47.79l-.74-1.53q1.82-1.2 3.92-1.2 2.04 0 3.16.99 1.13 1 1.13 2.89v2.94q0 .38.13.54.14.16.44.18v2.05q-.61.13-1.06.13-.68 0-1.05-.31t-.46-.81l-.06-.52q-.63.83-1.53 1.26t-1.92.43m.68-1.76q.61 0 1.16-.22t.86-.58q.39-.3.39-.68v-1.08q-.43-.16-.93-.26-.51-.1-.97-.1-.94 0-1.53.42-.6.43-.6 1.07 0 .62.47 1.02.47.41 1.15.41m12.69-7.96v2.2q-1.1.01-1.96.42-.86.4-1.24 1.21v5.71h-2.41v-9.43h2.21v2.01q.25-.48.59-.87.35-.39.74-.67.4-.29.8-.45.41-.15.79-.15h.29q.1 0 .19.02m4.57 9.59q-.95 0-1.72-.37-.78-.38-1.34-1.04-.57-.66-.88-1.52-.3-.86-.3-1.84 0-1.02.32-1.9.32-.89.9-1.55.58-.67 1.39-1.05.81-.37 1.78-.37 1.1 0 1.92.49.83.5 1.37 1.32v-1.65h2.11v8.98q0 1.04-.4 1.87-.39.83-1.09 1.41-.69.57-1.65.88-.97.3-2.1.3-1.55 0-2.6-.51t-1.81-1.45l1.31-1.28q.54.67 1.36 1.05t1.74.38q.56 0 1.07-.16.51-.15.91-.47.4-.33.62-.83.23-.51.23-1.19v-1.19q-.47.81-1.32 1.25-.84.44-1.82.44m.81-1.92q.4 0 .76-.13.36-.12.67-.34.3-.22.54-.5.23-.29.36-.62v-2.25q-.33-.82-1.02-1.33-.69-.5-1.45-.5-.56 0-1.01.24t-.77.65q-.33.4-.5.93-.17.52-.17 1.08 0 .57.2 1.08.2.5.55.88t.82.59q.47.22 1.02.22m11.27 2.05q-1.15 0-2.07-.4-.92-.39-1.55-1.07-.64-.67-.99-1.55-.34-.89-.34-1.86 0-.99.34-1.87.35-.88.99-1.56.63-.67 1.55-1.07.92-.39 2.07-.39t2.06.39q.91.4 1.55 1.07.64.68.98 1.56t.34 1.87q0 .97-.34 1.86-.34.88-.97 1.55-.63.68-1.55 1.07-.92.4-2.07.4m-2.46-4.88q0 .63.19 1.14.18.52.52.9.33.37.78.58t.97.21.97-.21.79-.58q.33-.38.52-.9.19-.53.19-1.16 0-.61-.19-1.13t-.52-.9q-.34-.38-.79-.59-.45-.2-.97-.2t-.97.21q-.45.22-.78.6-.34.38-.52.9-.19.52-.19 1.13m23.67-1.19v5.89h-2.42v-5.29q0-1.14-.38-1.66-.39-.52-1.07-.52-.72 0-1.35.55t-.9 1.43v5.49h-2.42v-5.29q0-1.14-.38-1.66-.39-.52-1.07-.52-.71 0-1.34.54-.64.54-.91 1.42v5.51h-2.42v-9.43h2.18v1.74q.52-.91 1.43-1.41.91-.49 2.08-.49 1.19 0 1.84.57.65.58.83 1.42.57-.97 1.45-1.48.89-.51 2.02-.51.86 0 1.42.32t.87.85q.3.52.42 1.18.12.67.12 1.35m6.48 6.07q-1.14 0-2.06-.39-.91-.38-1.56-1.05t-1-1.55-.35-1.85q0-1.01.34-1.9t.99-1.57q.65-.67 1.58-1.07.92-.39 2.07-.39 1.16 0 2.07.39.9.4 1.54 1.06.64.67.98 1.55.33.88.33 1.84 0 .23-.01.45-.01.21-.05.36h-7.29q.06.56.27.99.22.43.56.74.34.3.78.46.43.17.9.17.72 0 1.36-.36.63-.35.87-.92l2.07.57q-.52 1.08-1.67 1.78-1.14.69-2.72.69m-2.45-5.69h4.89q-.09-1.06-.78-1.7t-1.68-.64q-.49 0-.91.17t-.75.48q-.32.31-.53.74t-.24.95m17.62-.38v5.89h-2.41v-5.29q0-1.14-.4-1.66-.39-.52-1.1-.52-.36 0-.73.14-.38.15-.71.41-.34.26-.61.62t-.39.79v5.51h-2.42v-9.43h2.18v1.74q.52-.9 1.51-1.4t2.24-.5q.88 0 1.44.32.55.32.86.85.31.52.42 1.18.12.67.12 1.35m7.18 3.5.49 1.9q-.49.22-1.19.44-.7.21-1.48.21-.5 0-.94-.12-.44-.13-.77-.41-.34-.28-.54-.72-.19-.44-.19-1.07v-5.42h-1.25v-1.85h1.25v-3.06h2.41v3.06h1.98v1.85h-1.98v4.61q0 .5.26.71t.64.21.74-.13q.36-.12.57-.21m5.87 2.57q-1.15 0-2.07-.4-.92-.39-1.56-1.07-.63-.67-.98-1.55-.34-.89-.34-1.86 0-.99.34-1.87.35-.88.98-1.56.64-.67 1.56-1.07.92-.39 2.07-.39t2.06.39q.91.4 1.55 1.07.64.68.98 1.56t.34 1.87q0 .97-.34 1.86-.34.88-.97 1.55-.63.68-1.55 1.07-.92.4-2.07.4m-2.46-4.88q0 .63.18 1.14.19.52.53.9.33.37.78.58t.97.21.97-.21.79-.58q.33-.38.52-.9.19-.53.19-1.16 0-.61-.19-1.13t-.52-.9q-.34-.38-.79-.59-.45-.2-.97-.2t-.97.21q-.45.22-.78.6-.34.38-.53.9-.18.52-.18 1.13"/></svg>