<svg xmlns="http://www.w3.org/2000/svg" width="990" height="660" viewBox="0 0 990 660"><rect width="100%" height="100%" fill="#eee"/><path fill="#900" d="M238.685 296.92h9.01v54.95h-5.25q-1.21 0-2.03-.4t-1.58-1.35l-28.69-36.63q.23 2.51.23 4.64v33.74h-9v-54.95h5.35q.65 0 1.13.06.47.06.83.23t.7.49q.35.32.76.86l28.81 36.78q-.12-1.33-.19-2.62-.08-1.29-.08-2.4zm37.01 15.35q4.34 0 7.89 1.41t6.08 3.99 3.89 6.31q1.37 3.72 1.37 8.32 0 4.64-1.37 8.36-1.36 3.72-3.89 6.35-2.53 2.62-6.08 4.02-3.55 1.41-7.89 1.41-4.37 0-7.94-1.41-3.57-1.4-6.1-4.02-2.52-2.63-3.91-6.35t-1.39-8.36q0-4.6 1.39-8.32 1.39-3.73 3.91-6.31 2.53-2.58 6.1-3.99t7.94-1.41m0 32.95q4.87 0 7.21-3.27 2.33-3.27 2.33-9.57 0-6.31-2.33-9.62-2.34-3.3-7.21-3.3-4.94 0-7.31 3.32-2.38 3.33-2.38 9.6t2.38 9.55q2.37 3.29 7.31 3.29m39.41 7.26q-5.09 0-7.81-2.87t-2.72-7.92v-21.78h-3.99q-.76 0-1.29-.49-.53-.5-.53-1.48v-3.73l6.27-1.02 1.98-10.64q.19-.76.72-1.18t1.37-.42h4.86v12.27h10.41v6.69h-10.41v21.13q0 1.82.89 2.85.9 1.03 2.45 1.03.88 0 1.47-.21t1.02-.44q.44-.23.78-.44t.69-.21q.41 0 .68.21t.57.63l2.81 4.56q-2.05 1.71-4.71 2.58-2.66.88-5.51.88m15.58-39.6h9.42v38.99h-9.42zm10.72-11.36q0 1.22-.5 2.28-.49 1.06-1.31 1.86t-1.92 1.27q-1.1.48-2.35.48-1.22 0-2.3-.48-1.09-.47-1.88-1.27-.8-.8-1.28-1.86-.47-1.06-.47-2.28 0-1.25.47-2.36.48-1.1 1.28-1.9.79-.79 1.88-1.27 1.08-.47 2.3-.47 1.25 0 2.35.47 1.1.48 1.92 1.27.82.8 1.31 1.9.5 1.11.5 2.36m36.29 11.36v3.88q0 .99-.35 1.94-.34.95-.91 1.55l-18.5 24.4h19.19v7.22h-30.1v-3.91q0-.65.3-1.54.31-.9.92-1.69l18.69-24.67h-18.81v-7.18zm7.22 0h9.42v38.99h-9.42zm10.71-11.36q0 1.22-.49 2.28-.5 1.06-1.31 1.86-.82.8-1.92 1.27-1.1.48-2.36.48-1.21 0-2.3-.48-1.08-.47-1.88-1.27t-1.27-1.86q-.48-1.06-.48-2.28 0-1.25.48-2.36.47-1.1 1.27-1.9.8-.79 1.88-1.27 1.09-.47 2.3-.47 1.26 0 2.36.47 1.1.48 1.92 1.27.81.8 1.31 1.9.49 1.11.49 2.36m28.88 40.28v-6.57q-4.06.19-6.84.7-2.77.51-4.44 1.31-1.68.8-2.4 1.86-.72 1.07-.72 2.32 0 2.47 1.46 3.53 1.47 1.07 3.82 1.07 2.89 0 5-1.05 2.11-1.04 4.12-3.17m-19.83-20.48-1.68-3q6.73-6.16 16.19-6.16 3.42 0 6.12 1.12t4.56 3.12q1.86 1.99 2.83 4.77.97 2.77.97 6.08v24.62h-4.26q-1.33 0-2.05-.4t-1.14-1.61l-.83-2.82q-1.49 1.33-2.89 2.34-1.41 1.01-2.93 1.69-1.52.69-3.25 1.05t-3.82.36q-2.47 0-4.56-.67-2.09-.66-3.61-1.99t-2.35-3.31q-.84-1.97-.84-4.6 0-1.48.5-2.94.49-1.46 1.61-2.79t2.91-2.51q1.78-1.18 4.39-2.05 2.6-.88 6.06-1.43t7.9-.66v-2.28q0-3.92-1.67-5.8t-4.83-1.88q-2.28 0-3.78.53t-2.64 1.2l-2.07 1.2q-.93.53-2.07.53-.99 0-1.67-.52-.69-.51-1.1-1.19m67.98 3.23h7.64q2.81 0 4.9-.7 2.09-.71 3.48-2.02 1.38-1.31 2.07-3.19.68-1.88.68-4.2 0-2.2-.68-3.99-.69-1.79-2.06-3.04-1.36-1.25-3.45-1.92-2.09-.66-4.94-.66h-7.64zm-10.22-27.63h17.86q5.51 0 9.53 1.29 4.03 1.3 6.65 3.61 2.63 2.32 3.9 5.55t1.27 7.07q0 3.99-1.33 7.32-1.33 3.32-3.99 5.71-2.66 2.4-6.67 3.73t-9.36 1.33h-7.64v19.34h-10.22zm53.84 18.32.57 4.41q1.83-3.5 4.33-5.49 2.51-2 5.93-2 2.7 0 4.33 1.18l-.6 7.03q-.19.68-.55.97-.37.28-.97.28-.57 0-1.69-.19-1.13-.19-2.19-.19-1.56 0-2.77.46-1.22.45-2.19 1.31-.97.85-1.71 2.07t-1.39 2.77v24.02h-9.38v-38.99h5.51q1.44 0 2.01.51.57.52.76 1.85m20.37-2.36h9.42v38.99h-9.42zm10.72-11.36q0 1.22-.5 2.28-.49 1.06-1.31 1.86t-1.92 1.27q-1.1.48-2.35.48-1.22 0-2.3-.48-1.09-.47-1.88-1.27-.8-.8-1.28-1.86-.47-1.06-.47-2.28 0-1.25.47-2.36.48-1.1 1.28-1.9.79-.79 1.88-1.27 1.08-.47 2.3-.47 1.25 0 2.35.47 1.1.48 1.92 1.27.82.8 1.31 1.9.5 1.11.5 2.36m16.41 13.07.65 3.08q1.18-1.18 2.49-2.18 1.31-1.01 2.77-1.71 1.46-.71 3.14-1.11 1.67-.4 3.64-.4 3.2 0 5.67 1.09 2.47 1.08 4.12 3.04 1.65 1.95 2.51 4.67.85 2.72.85 5.99v24.81h-9.38v-24.81q0-3.58-1.64-5.53-1.63-1.96-4.98-1.96-2.43 0-4.56 1.1-2.12 1.1-4.02 3v28.2h-9.39v-38.99h5.74q1.82 0 2.39 1.71m65.13 3.12-2.47 3.42q-.41.53-.81.83-.4.31-1.16.31-.72 0-1.41-.44-.68-.44-1.63-.99t-2.26-.99q-1.31-.43-3.25-.43-2.47 0-4.33.89-1.87.89-3.1 2.57-1.24 1.67-1.84 4.04-.61 2.38-.61 5.38 0 3.12.66 5.55.67 2.43 1.92 4.08 1.26 1.66 3.04 2.51 1.79.86 4.03.86t3.63-.56q1.39-.55 2.34-1.21.95-.67 1.65-1.22t1.58-.55q1.14 0 1.71.88l2.69 3.42q-1.55 1.82-3.38 3.06-1.82 1.23-3.78 1.97t-4.03 1.05q-2.07.3-4.12.3-3.61 0-6.8-1.35t-5.59-3.93q-2.39-2.59-3.78-6.33t-1.39-8.53q0-4.29 1.24-7.96 1.23-3.67 3.63-6.35 2.39-2.68 5.93-4.2 3.53-1.52 8.13-1.52 4.37 0 7.66 1.41 3.28 1.41 5.9 4.03m6.54-4.83h9.42v38.99h-9.42zm10.72-11.36q0 1.22-.5 2.28-.49 1.06-1.31 1.86t-1.92 1.27q-1.1.48-2.35.48-1.22 0-2.3-.48-1.09-.47-1.88-1.27-.8-.8-1.28-1.86-.47-1.06-.47-2.28 0-1.25.47-2.36.48-1.1 1.28-1.9.79-.79 1.88-1.27 1.08-.47 2.3-.47 1.25 0 2.35.47 1.1.48 1.92 1.27.82.8 1.31 1.9.5 1.11.5 2.36m17.67 22.76v17.48q1.59 1.94 3.47 2.74t4.09.8q2.13 0 3.84-.8t2.9-2.43q1.2-1.64 1.85-4.13.64-2.49.64-5.87 0-3.42-.55-5.79-.55-2.38-1.58-3.86-1.02-1.48-2.48-2.17-1.47-.68-3.33-.68-2.93 0-4.98 1.24-2.05 1.23-3.87 3.47m-1.26-9.69.76 3.61q2.4-2.7 5.44-4.37t7.14-1.67q3.19 0 5.83 1.33t4.56 3.86q1.92 2.52 2.97 6.23 1.04 3.7 1.04 8.49 0 4.37-1.18 8.1-1.17 3.72-3.36 6.46-2.18 2.73-5.28 4.27t-6.94 1.54q-3.26 0-5.58-1.01-2.32-1-4.14-2.79v15.96h-9.39v-51.72h5.74q1.82 0 2.39 1.71m55.63 27.21v-6.57q-4.06.19-6.84.7-2.77.51-4.44 1.31t-2.4 1.86q-.72 1.07-.72 2.32 0 2.47 1.47 3.53 1.46 1.07 3.81 1.07 2.89 0 5-1.05 2.11-1.04 4.12-3.17m-19.83-20.48-1.67-3q6.72-6.16 16.18-6.16 3.42 0 6.12 1.12t4.56 3.12q1.86 1.99 2.83 4.77.97 2.77.97 6.08v24.62h-4.25q-1.33 0-2.06-.4-.72-.4-1.14-1.61l-.83-2.82q-1.48 1.33-2.89 2.34t-2.93 1.69q-1.52.69-3.24 1.05-1.73.36-3.82.36-2.47 0-4.56-.67-2.09-.66-3.61-1.99t-2.36-3.31q-.84-1.97-.84-4.6 0-1.48.5-2.94.49-1.46 1.61-2.79t2.91-2.51 4.39-2.05q2.6-.88 6.06-1.43t7.9-.66v-2.28q0-3.92-1.67-5.8t-4.82-1.88q-2.28 0-3.78.53-1.51.53-2.65 1.2l-2.07 1.2q-.93.53-2.07.53-.99 0-1.67-.52-.68-.51-1.1-1.19m37.92-25.92h9.39v56.47h-9.39zm26.18 32.49h17.71q0-1.82-.51-3.44-.51-1.61-1.54-2.83-1.03-1.21-2.6-1.92-1.58-.7-3.67-.7-4.07 0-6.4 2.32-2.34 2.32-2.99 6.57m23.94 5.66h-24.13q.23 3.01 1.07 5.19.83 2.19 2.2 3.61 1.37 1.43 3.25 2.13t4.16.7 3.94-.53q1.65-.53 2.88-1.18 1.24-.64 2.17-1.18.93-.53 1.8-.53 1.18 0 1.75.88l2.7 3.42q-1.56 1.82-3.5 3.06-1.93 1.23-4.04 1.97t-4.3 1.05q-2.18.3-4.23.3-4.07 0-7.57-1.35-3.49-1.35-6.08-3.99-2.58-2.64-4.06-6.53-1.48-3.9-1.48-9.03 0-3.99 1.29-7.51 1.29-3.51 3.7-6.11 2.42-2.61 5.89-4.13 3.48-1.52 7.85-1.52 3.69 0 6.8 1.18 3.12 1.18 5.36 3.44t3.52 5.55q1.27 3.29 1.27 7.5 0 2.13-.46 2.87-.45.74-1.75.74"/></svg>