<svg xmlns="http://www.w3.org/2000/svg" width="522" height="285" viewBox="0 0 522 285"><rect width="100%" height="100%" fill="#DDDDDD"/><path fill="#999999" d="m128.155 123.765-1.7 3.24q-.31.54-.65.78-.35.24-.86.24-.53 0-1.16-.39-.62-.4-1.49-.88-.87-.49-2.03-.88-1.16-.4-2.74-.4-1.43 0-2.5.35-1.07.34-1.8.95-.72.62-1.08 1.47t-.36 1.87q0 1.3.73 2.17t1.92 1.48q1.2.61 2.73 1.1 1.53.48 3.14 1.03t3.14 1.28q1.53.72 2.73 1.83 1.19 1.11 1.92 2.72.73 1.6.73 3.9 0 2.5-.86 4.68-.85 2.18-2.5 3.8-1.64 1.62-4.01 2.55t-5.43.93q-1.76 0-3.47-.35-1.71-.34-3.28-.98t-2.94-1.53q-1.38-.89-2.45-1.99l2.01-3.29q.26-.35.67-.6.4-.24.86-.24.64 0 1.38.52.74.53 1.76 1.16 1.02.64 2.38 1.17 1.37.52 3.28.52 2.93 0 4.54-1.39t1.61-3.99q0-1.46-.73-2.37-.73-.92-1.93-1.55-1.19-.62-2.72-1.06-1.53-.43-3.12-.94-1.58-.51-3.11-1.22-1.53-.72-2.73-1.86-1.19-1.15-1.92-2.87t-.73-4.25q0-2.01.81-3.93.8-1.91 2.33-3.39t3.77-2.37q2.25-.89 5.15-.89 3.27 0 6.02 1.02 2.76 1.02 4.69 2.85m11.94 14.9v11.73q1.07 1.3 2.33 1.83 1.26.54 2.74.54 1.43 0 2.58-.54 1.15-.53 1.95-1.63t1.24-2.77q.43-1.67.43-3.94 0-2.29-.37-3.88-.37-1.6-1.06-2.59-.69-1-1.67-1.46t-2.23-.46q-1.96 0-3.34.83t-2.6 2.34m-.84-6.51.51 2.43q1.6-1.81 3.64-2.94 2.04-1.12 4.8-1.12 2.14 0 3.91.89 1.77.9 3.06 2.59 1.29 1.7 1.99 4.19.7 2.48.7 5.69 0 2.94-.79 5.44-.79 2.49-2.26 4.33-1.46 1.84-3.54 2.87t-4.65 1.03q-2.2 0-3.75-.67-1.56-.68-2.78-1.88v10.71h-6.3v-34.7h3.85q1.22 0 1.61 1.14m35.08-1.55q2.91 0 5.3.94 2.38.95 4.08 2.68 1.69 1.73 2.61 4.23t.92 5.59q0 3.11-.92 5.61t-2.61 4.26q-1.7 1.76-4.08 2.7-2.39.94-5.3.94-2.93 0-5.32-.94-2.4-.94-4.1-2.7-1.69-1.76-2.62-4.26t-.93-5.61q0-3.09.93-5.59t2.62-4.23q1.7-1.73 4.1-2.68 2.39-.94 5.32-.94m0 22.11q3.27 0 4.84-2.2 1.57-2.19 1.57-6.42t-1.57-6.45-4.84-2.22q-3.31 0-4.9 2.23-1.6 2.23-1.6 6.44t1.6 6.41q1.59 2.21 4.9 2.21m23.29-20.12.38 2.96q1.22-2.35 2.91-3.69 1.68-1.34 3.97-1.34 1.81 0 2.91.79l-.41 4.72q-.12.46-.37.65-.24.19-.65.19-.38 0-1.13-.13-.75-.12-1.47-.12-1.04 0-1.86.3-.82.31-1.47.88-.65.58-1.14 1.39-.5.82-.93 1.86v16.12h-6.3v-26.16h3.69q.97 0 1.36.34.38.35.51 1.24m22.18 24.99q-3.42 0-5.24-1.93-1.82-1.92-1.82-5.31v-14.62h-2.68q-.51 0-.87-.33-.35-.33-.35-.99v-2.5l4.2-.69 1.33-7.14q.13-.51.48-.79.36-.28.92-.28h3.27v8.24h6.98v4.48h-6.98v14.18q0 1.23.6 1.91.59.69 1.64.69.59 0 .98-.14.4-.14.69-.29t.52-.29.46-.14q.28 0 .46.14t.38.42l1.89 3.06q-1.38 1.14-3.16 1.73-1.79.59-3.7.59m28.94-18.92v11.73q1.07 1.3 2.34 1.83 1.26.54 2.74.54 1.43 0 2.57-.54 1.15-.53 1.95-1.63.81-1.1 1.24-2.77t.43-3.94q0-2.29-.37-3.88-.36-1.6-1.05-2.59-.69-1-1.67-1.46-.99-.46-2.23-.46-1.97 0-3.35.83-1.37.83-2.6 2.34m-.84-6.51.51 2.43q1.61-1.81 3.65-2.94 2.04-1.12 4.79-1.12 2.14 0 3.92.89 1.77.9 3.06 2.59 1.28 1.7 1.99 4.19.7 2.48.7 5.69 0 2.94-.79 5.44-.79 2.49-2.26 4.33t-3.54 2.87q-2.08 1.03-4.66 1.03-2.19 0-3.75-.67-1.55-.68-2.78-1.88v10.71h-6.29v-34.7h3.85q1.22 0 1.6 1.14m35.09-1.55q2.91 0 5.29.94 2.39.95 4.08 2.68 1.7 1.73 2.62 4.23.91 2.5.91 5.59 0 3.11-.91 5.61-.92 2.5-2.62 4.26-1.69 1.76-4.08 2.7-2.38.94-5.29.94-2.93 0-5.33-.94t-4.09-2.7q-1.7-1.76-2.63-4.26t-.93-5.61q0-3.09.93-5.59t2.63-4.23q1.69-1.73 4.09-2.68 2.4-.94 5.33-.94m0 22.11q3.26 0 4.83-2.2 1.57-2.19 1.57-6.42t-1.57-6.45-4.83-2.22q-3.31 0-4.91 2.23-1.59 2.23-1.59 6.44t1.59 6.41q1.6 2.21 4.91 2.21m34.14-3.29v-11.73q-1.07-1.3-2.33-1.84-1.26-.53-2.71-.53-1.43 0-2.58.53-1.15.54-1.96 1.62-.82 1.08-1.25 2.76-.44 1.67-.44 3.93 0 2.3.37 3.89.37 1.6 1.06 2.6.69 1.01 1.68 1.46 1 .44 2.22.44 1.97 0 3.34-.81 1.38-.82 2.6-2.32m0-30.14h6.3v37.89h-3.85q-1.25 0-1.58-1.15l-.53-2.52q-1.58 1.81-3.64 2.93-2.05 1.12-4.78 1.12-2.14 0-3.93-.89-1.78-.89-3.07-2.59-1.29-1.69-1.99-4.19t-.7-5.72q0-2.9.79-5.4t2.27-4.34q1.48-1.83 3.55-2.86 2.06-1.04 4.64-1.04 2.19 0 3.75.69 1.55.69 2.77 1.86zm32.93 14.97-1.66 2.29q-.28.36-.55.56-.27.21-.78.21-.48 0-.94-.3-.46-.29-1.1-.66t-1.52-.66q-.88-.3-2.18-.3-1.65 0-2.9.6t-2.08 1.72q-.83 1.13-1.24 2.72t-.41 3.61q0 2.09.45 3.72t1.29 2.74 2.04 1.68q1.2.58 2.7.58 1.51 0 2.44-.37t1.56-.82q.64-.44 1.11-.81.48-.37 1.06-.37.77 0 1.15.58l1.81 2.3q-1.05 1.22-2.27 2.05t-2.54 1.33q-1.31.49-2.7.7-1.39.2-2.77.2-2.42 0-4.56-.9-2.14-.91-3.75-2.64-1.61-1.74-2.54-4.25t-.93-5.72q0-2.88.83-5.34.83-2.47 2.44-4.26 1.6-1.8 3.97-2.82 2.38-1.02 5.46-1.02 2.93 0 5.14.94 2.21.95 3.97 2.71m18 16.16v-4.41q-2.73.13-4.59.47-1.86.35-2.99.88-1.12.54-1.6 1.25-.49.72-.49 1.56 0 1.65.99 2.37.98.71 2.56.71 1.94 0 3.35-.7 1.42-.7 2.77-2.13m-13.31-13.74-1.12-2.02q4.51-4.13 10.86-4.13 2.29 0 4.1.75 1.81.76 3.06 2.1 1.25 1.33 1.9 3.2.65 1.86.65 4.08v16.52h-2.85q-.89 0-1.38-.27-.48-.27-.76-1.08l-.57-1.89q-.99.89-1.93 1.57-.95.68-1.97 1.13-1.02.46-2.18.71-1.16.24-2.56.24-1.66 0-3.06-.45-1.4-.44-2.42-1.34-1.02-.89-1.58-2.22-.56-1.32-.56-3.08 0-1 .33-1.98t1.08-1.87 1.95-1.68q1.2-.8 2.95-1.38 1.74-.59 4.06-.96t5.31-.44v-1.53q0-2.63-1.12-3.89-1.13-1.27-3.24-1.27-1.53 0-2.54.36t-1.77.81q-.77.44-1.39.8-.63.36-1.39.36-.66 0-1.12-.35-.46-.34-.74-.8m42.76-2.83-1.43 2.27q-.25.4-.53.57t-.72.17q-.46 0-.98-.26-.52-.25-1.21-.57t-1.57-.58q-.88-.25-2.08-.25-1.86 0-2.92.79-1.05.79-1.05 2.06 0 .85.54 1.42.55.57 1.46 1.01.9.43 2.05.78 1.15.34 2.33.75 1.19.41 2.34.93 1.14.52 2.05 1.32.9.81 1.45 1.93t.55 2.7q0 1.89-.67 3.48-.68 1.6-2.01 2.76-1.32 1.16-3.27 1.81t-4.5.65q-1.36 0-2.64-.24-1.29-.25-2.48-.68-1.18-.43-2.19-1.02t-1.77-1.28l1.45-2.39q.28-.44.66-.67.39-.22.97-.22.59 0 1.11.33.53.33 1.21.71.69.38 1.62.72.93.33 2.36.33 1.12 0 1.93-.27.8-.27 1.32-.7.53-.44.77-1.01t.24-1.19q0-.91-.55-1.5t-1.45-1.02q-.91-.43-2.07-.78-1.16-.34-2.37-.75t-2.37-.96q-1.16-.54-2.07-1.39-.9-.84-1.45-2.06-.55-1.23-.55-2.96 0-1.61.64-3.06t1.87-2.54q1.24-1.08 3.09-1.73t4.27-.65q2.7 0 4.92.89t3.7 2.35m13.75 23.74q-3.42 0-5.25-1.93-1.82-1.92-1.82-5.31v-14.62h-2.68q-.51 0-.86-.33-.36-.33-.36-.99v-2.5l4.21-.69 1.32-7.14q.13-.51.49-.79t.92-.28h3.26v8.24h6.99v4.48h-6.99v14.18q0 1.23.6 1.91.6.69 1.64.69.59 0 .99-.14.39-.14.68-.29.3-.15.53-.29t.46-.14q.28 0 .46.14.17.14.38.42l1.88 3.06q-1.37 1.14-3.16 1.73-1.78.59-3.69.59"/></svg>