<?xml version="1.0" encoding="UTF-8" standalone="no"?><!DOCTYPE svg PUBLIC "-//W3C//DTD SVG 1.1//EN" "http://www.w3.org/Graphics/SVG/1.1/DTD/svg11.dtd"><svg xmlns="http://www.w3.org/2000/svg" xmlns:xlink="http://www.w3.org/1999/xlink" version="1.1" width="180" height="160" viewBox="0 0 180 160">
<desc>Created with SVGMaker Editor 3.0.0</desc>
<defs>
</defs>
<circle transform="translate(0,0)" style="stroke: rgb(255,255,255); stroke-opacity: 0; stroke-width: 0; fill: rgb(230,230,230)" cx="87.5768" cy="77.5077" r="76.6932" vector-effect="non-scaling-stroke"/>
<rect transform="translate(0,0)" style="stroke: rgb(255,255,255); stroke-opacity: 0; fill: rgb(221,221,221); visibility: hidden" x="0" y="0" width="100" height="100"/>
<path transform="translate(0,0)" style="stroke: rgb(255,255,255); stroke-opacity: 0; fill: rgb(153,153,153)" stroke-linecap="round" d="M54.515 63.84L54.515 67.82 46.675 67.82 46.675 89.87 41.825 89.87 41.825 67.82 33.985 67.82 33.985 63.84ZM66.995 85.1L66.995 81.99Q65.065 82.08 63.755 82.32 62.435 82.56 61.645 82.94 60.855 83.32 60.515 83.82 60.175 84.33 60.175 84.92 60.175 86.09 60.865 86.59 61.555 87.1 62.675 87.1 64.045 87.1 65.035 86.6 66.035 86.11 66.995 85.1M57.595 75.4L56.805 73.98Q59.995 71.06 64.475 71.06 66.095 71.06 67.375 71.59 68.645 72.12 69.535 73.07 70.415 74.01 70.875 75.33 71.335 76.64 71.335 78.21L71.335 89.87 69.315 89.87Q68.685 89.87 68.345 89.68 68.005 89.49 67.805 88.92L67.405 87.58Q66.705 88.21 66.035 88.69 65.375 89.17 64.655 89.49 63.935 89.82 63.115 89.99 62.295 90.16 61.305 90.16 60.135 90.16 59.145 89.84 58.155 89.53 57.435 88.9 56.715 88.27 56.315 87.33 55.925 86.4 55.925 85.15 55.925 84.45 56.155 83.76 56.395 83.07 56.925 82.44 57.455 81.81 58.295 81.25 59.145 80.69 60.375 80.28 61.615 79.86 63.245 79.6 64.885 79.34 66.995 79.29L66.995 78.21Q66.995 76.35 66.205 75.46 65.405 74.57 63.915 74.57 62.835 74.57 62.125 74.82 61.415 75.07 60.875 75.39 60.335 75.7 59.895 75.96 59.455 76.21 58.915 76.21 58.445 76.21 58.115 75.96 57.795 75.72 57.595 75.4M86.975 71.4L91.415 71.4 91.415 89.87 88.705 89.87Q87.815 89.87 87.585 89.06L87.275 87.58Q86.145 88.74 84.775 89.45 83.405 90.16 81.555 90.16 80.045 90.16 78.885 89.64 77.725 89.13 76.925 88.2 76.135 87.26 75.735 85.97 75.325 84.69 75.325 83.14L75.325 71.4 79.775 71.4 79.775 83.14Q79.775 84.83 80.555 85.76 81.335 86.68 82.905 86.68 84.055 86.68 85.065 86.17 86.075 85.66 86.975 84.76ZM99.735 72.52L100.005 74.61Q100.865 72.95 102.055 72 103.245 71.06 104.865 71.06 106.145 71.06 106.915 71.62L106.625 74.95Q106.535 75.27 106.365 75.41 106.195 75.54 105.905 75.54 105.635 75.54 105.105 75.45 104.575 75.36 104.075 75.36 103.335 75.36 102.755 75.58 102.185 75.79 101.725 76.2 101.265 76.6 100.915 77.18 100.565 77.76 100.255 78.49L100.255 89.87 95.815 89.87 95.815 71.4 98.425 71.4Q99.105 71.4 99.375 71.64 99.645 71.89 99.735 72.52M120.705 71.4L125.155 71.4 125.155 89.87 122.435 89.87Q121.555 89.87 121.315 89.06L121.015 87.58Q119.875 88.74 118.505 89.45 117.145 90.16 115.285 90.16 113.775 90.16 112.615 89.64 111.455 89.13 110.665 88.2 109.865 87.26 109.465 85.97 109.055 84.69 109.055 83.14L109.055 71.4 113.505 71.4 113.505 83.14Q113.505 84.83 114.285 85.76 115.075 86.68 116.635 86.68 117.785 86.68 118.795 86.17 119.805 85.66 120.705 84.76ZM141.815 73.4L140.815 75Q140.635 75.29 140.435 75.41 140.235 75.52 139.925 75.52 139.605 75.52 139.235 75.34 138.865 75.16 138.385 74.94 137.895 74.71 137.275 74.53 136.655 74.35 135.805 74.35 134.495 74.35 133.745 74.91 132.995 75.47 132.995 76.37 132.995 76.96 133.385 77.37 133.775 77.77 134.415 78.08 135.055 78.39 135.865 78.63 136.675 78.87 137.505 79.16 138.345 79.45 139.155 79.82 139.965 80.19 140.605 80.75 141.245 81.32 141.635 82.11 142.015 82.9 142.015 84.02 142.015 85.35 141.535 86.48 141.065 87.6 140.125 88.42 139.195 89.24 137.815 89.7 136.435 90.16 134.635 90.16 133.685 90.16 132.775 89.99 131.865 89.82 131.025 89.51 130.195 89.2 129.485 88.79 128.765 88.38 128.225 87.89L129.255 86.2Q129.455 85.89 129.725 85.73 129.995 85.57 130.405 85.57 130.825 85.57 131.195 85.8 131.555 86.04 132.045 86.31 132.535 86.58 133.185 86.81 133.845 87.04 134.855 87.04 135.645 87.04 136.215 86.85 136.775 86.67 137.145 86.36 137.515 86.05 137.685 85.65 137.855 85.24 137.855 84.81 137.855 84.16 137.475 83.75 137.085 83.34 136.445 83.03 135.805 82.72 134.985 82.48 134.165 82.24 133.315 81.95 132.455 81.66 131.645 81.27 130.825 80.89 130.185 80.29 129.545 79.7 129.155 78.84 128.765 77.97 128.765 76.75 128.765 75.61 129.215 74.59 129.665 73.56 130.545 72.8 131.415 72.03 132.715 71.57 134.025 71.11 135.735 71.11 137.645 71.11 139.205 71.74 140.775 72.37 141.815 73.4"/>
</svg>