<svg xmlns="http://www.w3.org/2000/svg" width="250" height="40" viewBox="0 0 250 40"><rect width="100%" height="100%" fill="#c60800"/><path fill="#FFF" d="M65.31 13h-6.06v14h3.24v-3.86h2.82c3.74 0 6.08-1.94 6.08-5.06 0-3.14-2.34-5.08-6.08-5.08m-.18 7.5h-2.64v-4.86h2.64c1.98 0 2.98.9 2.98 2.44 0 1.52-1 2.42-2.98 2.42m15.54 6.74c4.4 0 7.66-3.06 7.66-7.24s-3.26-7.24-7.66-7.24c-4.42 0-7.66 3.08-7.66 7.24s3.24 7.24 7.66 7.24m0-2.76c-2.5 0-4.38-1.82-4.38-4.48s1.88-4.48 4.38-4.48 4.38 1.82 4.38 4.48-1.88 4.48-4.38 4.48m14.7 2.76c4 0 5.94-2 5.94-4.34 0-5.14-8.14-3.36-8.14-5.94 0-.88.74-1.6 2.66-1.6 1.24 0 2.58.36 3.88 1.1l1-2.46c-1.3-.82-3.1-1.24-4.86-1.24-3.98 0-5.9 1.98-5.9 4.36 0 5.2 8.14 3.4 8.14 6.02 0 .86-.78 1.5-2.7 1.5-1.68 0-3.44-.6-4.62-1.46l-1.1 2.44c1.24.96 3.48 1.62 5.7 1.62m10.86-.24h3.24V15.64h4.48V13h-12.2v2.64h4.48Zm19.72.24c4 0 5.94-2 5.94-4.34 0-5.14-8.14-3.36-8.14-5.94 0-.88.74-1.6 2.66-1.6 1.24 0 2.58.36 3.88 1.1l1-2.46c-1.3-.82-3.1-1.24-4.86-1.24-3.98 0-5.9 1.98-5.9 4.36 0 5.2 8.14 3.4 8.14 6.02 0 .86-.78 1.5-2.7 1.5-1.68 0-3.44-.6-4.62-1.46l-1.1 2.44c1.24.96 3.48 1.62 5.7 1.62M140.17 13h-6.06v14h3.24v-3.86h2.82c3.74 0 6.08-1.94 6.08-5.06 0-3.14-2.34-5.08-6.08-5.08m-.18 7.5h-2.64v-4.86h2.64c1.98 0 2.98.9 2.98 2.44 0 1.52-1 2.42-2.98 2.42m15.54 6.74c4.4 0 7.66-3.06 7.66-7.24s-3.26-7.24-7.66-7.24c-4.42 0-7.66 3.08-7.66 7.24s3.24 7.24 7.66 7.24m0-2.76c-2.5 0-4.38-1.82-4.38-4.48s1.88-4.48 4.38-4.48 4.38 1.82 4.38 4.48-1.88 4.48-4.38 4.48m22.5 2.52-3.14-4.5c1.82-.78 2.88-2.32 2.88-4.42 0-3.14-2.34-5.08-6.08-5.08h-6.06v14h3.24v-3.9h2.98l2.7 3.9Zm-3.54-8.92c0 1.52-1 2.44-2.98 2.44h-2.64v-4.88h2.64c1.98 0 2.98.9 2.98 2.44m8.54 8.92h3.24V15.64h4.48V13h-12.2v2.64h4.48Z"/></svg>