<svg xmlns="http://www.w3.org/2000/svg" width="390" height="50" viewBox="0 0 390 50"><rect width="100%" height="100%" fill="#555"/><path fill="#fff" d="M80.29 31.59H76.7V13.13h7.83q1.27 0 2.35.53 1.08.54 1.86 1.41t1.22 1.97q.44 1.11.44 2.23 0 1.17-.41 2.27-.42 1.11-1.17 1.96-.76.86-1.82 1.38-1.07.52-2.34.52h-4.37zm0-15.31v5.98h4.16q.99 0 1.65-.81t.66-2.18q0-.71-.2-1.27-.21-.55-.55-.94t-.79-.59q-.46-.19-.93-.19zm15.86 15.57q-.99 0-1.85-.33-.85-.32-1.48-.91-.62-.58-.97-1.36t-.35-1.72q0-.96.42-1.78.43-.82 1.2-1.39t1.83-.9q1.07-.32 2.34-.32.91 0 1.79.16.87.15 1.54.44v-.78q0-1.35-.76-2.08-.77-.73-2.28-.73-1.09 0-2.13.39t-2.13 1.14l-1.07-2.21q2.63-1.74 5.67-1.74 2.94 0 4.56 1.44 1.63 1.45 1.63 4.18v4.24q0 .54.19.78.2.23.64.26v2.96q-.89.18-1.54.18-.98 0-1.52-.44-.53-.44-.66-1.17l-.08-.75q-.91 1.19-2.21 1.82-1.3.62-2.78.62m.99-2.55q.88 0 1.67-.31.8-.31 1.24-.83.57-.44.57-.99v-1.56q-.62-.23-1.35-.38-.73-.14-1.4-.14-1.36 0-2.21.61-.86.61-.86 1.55 0 .88.67 1.47.68.58 1.67.58m15.55 2.37q-1.38 0-2.5-.55-1.12-.54-1.94-1.49t-1.26-2.2-.44-2.65q0-1.48.47-2.76.47-1.27 1.3-2.23.83-.97 2-1.51 1.17-.55 2.57-.55 1.59 0 2.79.72 1.19.71 1.97 1.91v-2.39h3.04v12.97q0 1.51-.57 2.7-.57 1.2-1.57 2.03t-2.39 1.28q-1.39.44-3.03.44-2.24 0-3.76-.74t-2.61-2.1l1.9-1.84q.78.96 1.96 1.51 1.18.54 2.51.54.8 0 1.55-.22.74-.22 1.31-.69t.9-1.19q.32-.73.32-1.72v-1.72q-.68 1.17-1.9 1.81t-2.62.64m1.17-2.78q.57 0 1.09-.19.52-.18.96-.49t.78-.73q.34-.41.52-.88v-3.25q-.47-1.2-1.47-1.93-1-.72-2.09-.72-.81 0-1.46.35t-1.12.93q-.46.59-.71 1.34-.25.76-.25 1.56 0 .83.29 1.56.28.73.79 1.28.51.54 1.18.85.68.32 1.49.32m16.3 2.96q-1.64 0-2.97-.56-1.32-.56-2.26-1.52-.93-.96-1.44-2.24-.51-1.27-.51-2.67 0-1.46.5-2.75.49-1.28 1.43-2.26.93-.97 2.27-1.55 1.34-.57 3-.57 1.67 0 2.98.57 1.31.58 2.24 1.54.92.96 1.4 2.23.48 1.28.48 2.66 0 .33-.01.65-.01.31-.07.52h-10.53q.08.8.39 1.43.32.62.81 1.06t1.12.68q.62.23 1.3.23 1.04 0 1.96-.51.92-.5 1.26-1.33l2.99.83q-.75 1.56-2.4 2.56t-3.94 1m-3.54-8.22h7.07q-.13-1.53-1.13-2.45-1-.93-2.43-.93-.7 0-1.31.25t-1.08.69-.77 1.07q-.3.62-.35 1.37m31.96-8.58-1.59 2.92q-.18-.19-.66-.5t-1.17-.61-1.5-.51q-.8-.2-1.64-.2-1.48 0-2.21.54-.72.55-.72 1.54 0 .57.27.94.27.38.79.67.52.28 1.32.52.79.23 1.83.49 1.35.37 2.46.78 1.1.42 1.87 1.04.76.63 1.18 1.5t.42 2.14q0 1.48-.56 2.54-.56 1.05-1.51 1.7t-2.18.95q-1.24.3-2.59.3-2.08 0-4.11-.63-2.03-.62-3.64-1.76l1.59-3.1q.23.24.84.61.61.38 1.44.76.84.37 1.85.63t2.08.26q2.96 0 2.96-1.89 0-.6-.33-1.02-.34-.41-.97-.73-.62-.31-1.5-.57-.89-.26-1.98-.57-1.33-.36-2.3-.79-.98-.43-1.63-1.02-.65-.58-.97-1.35-.33-.77-.33-1.83 0-1.41.52-2.5t1.45-1.82q.92-.73 2.14-1.1 1.22-.38 2.63-.38 1.95 0 3.59.61 1.63.61 2.86 1.44m6.5 16.54h-3.49V17.97h3.49zm0-15.52h-3.49v-3.46h3.49zm1.74 1.9h3.56l2.94 4.26.21.47.26-.47 2.91-4.26h3.59l-4.87 6.83 4.94 6.79h-3.58l-3.02-4.24-.23-.44-.21.44-2.99 4.24h-3.59l4.91-6.79zm33.75-4.84h3.56v18.46h-3.56v-7.88h-8.38v7.88h-3.58V13.13h3.58v7.46h8.38zm13.18 18.72q-1.67 0-2.99-.57-1.33-.57-2.25-1.55-.92-.97-1.42-2.25-.49-1.27-.49-2.68 0-1.43.49-2.7.5-1.27 1.42-2.25.92-.97 2.25-1.55 1.32-.57 2.99-.57 1.66 0 2.98.57 1.31.58 2.23 1.55.92.98 1.42 2.25.49 1.27.49 2.7 0 1.41-.49 2.68-.5 1.28-1.41 2.25-.91.98-2.23 1.55-1.33.57-2.99.57m-3.56-7.05q0 .91.27 1.65.27.75.75 1.29.48.55 1.13.85t1.41.3q.75 0 1.4-.3t1.13-.85q.48-.54.76-1.3.27-.75.27-1.66 0-.89-.27-1.64-.28-.75-.76-1.3t-1.13-.85q-.65-.29-1.4-.29-.76 0-1.41.31t-1.13.86q-.48.54-.75 1.3-.27.75-.27 1.63m13 3.64V12.61h3.48v14.61q0 .76.36 1.17.37.42 1.04.42.32 0 .69-.11.38-.1.72-.26l.47 2.66q-.71.33-1.64.52-.94.18-1.69.18-1.64 0-2.54-.87-.89-.87-.89-2.49m8.24 0V12.61h3.48v14.61q0 .76.37 1.17.36.42 1.04.42.31 0 .69-.11.37-.1.71-.26l.47 2.66q-.7.33-1.64.52-.94.18-1.69.18-1.64 0-2.53-.87-.9-.87-.9-2.49m11.75 3.15h-3.48V17.97h3.48zm0-15.52h-3.48v-3.46h3.48zm15.99 12.24 4.06-10.34h3.3l-5.7 13.62h-2.86l-2.34-5.98-2.31 5.98h-2.86l-5.67-13.62h3.28l4.05 10.34 1.67-4.42-2.39-5.9h2.8l1.43 4.19 1.46-4.19h2.81l-2.37 5.9zm14.77 3.54q-1.67 0-2.99-.57-1.33-.57-2.25-1.55-.92-.97-1.42-2.25-.49-1.27-.49-2.68 0-1.43.49-2.7.5-1.27 1.42-2.25.92-.97 2.25-1.55 1.32-.57 2.99-.57 1.66 0 2.98.57 1.31.58 2.23 1.55.92.98 1.42 2.25.49 1.27.49 2.7 0 1.41-.49 2.68-.5 1.28-1.41 2.25-.91.98-2.23 1.55-1.33.57-2.99.57m-3.56-7.05q0 .91.27 1.65.27.75.75 1.29.48.55 1.13.85t1.41.3q.75 0 1.4-.3t1.13-.85q.48-.54.76-1.3.27-.75.27-1.66 0-.89-.27-1.64-.28-.75-.76-1.3t-1.13-.85q-.65-.29-1.4-.29-.76 0-1.41.31t-1.13.86q-.48.54-.75 1.3-.27.75-.27 1.63m19.31 7.05q-1.66 0-2.99-.57-1.32-.57-2.24-1.55-.93-.97-1.42-2.25-.5-1.27-.5-2.68 0-1.43.5-2.7.49-1.27 1.42-2.25.92-.97 2.24-1.55 1.33-.57 2.99-.57 1.67 0 2.98.57 1.31.58 2.24 1.55.92.98 1.41 2.25.5 1.27.5 2.7 0 1.41-.5 2.68-.49 1.28-1.4 2.25-.91.98-2.24 1.55-1.32.57-2.99.57m-3.56-7.05q0 .91.28 1.65.27.75.75 1.29.48.55 1.13.85t1.4.3q.76 0 1.41-.3t1.13-.85q.48-.54.75-1.3.28-.75.28-1.66 0-.89-.28-1.64-.27-.75-.75-1.3t-1.13-.85q-.65-.29-1.41-.29-.75 0-1.4.31t-1.13.86q-.48.54-.75 1.3-.28.75-.28 1.63m18.67 7.05q-1.4 0-2.6-.55-1.2-.54-2.05-1.5-.86-.97-1.34-2.25-.48-1.29-.48-2.77t.45-2.76q.46-1.27 1.26-2.23.81-.97 1.93-1.51 1.11-.55 2.44-.55 1.51 0 2.72.73t1.88 1.9v-7.75h3.49v14.98q0 .54.18.78.18.23.62.26v2.96q-.91.18-1.48.18-.94 0-1.53-.47-.6-.46-.68-1.22l-.08-.86q-.75 1.3-2.04 1.97-1.29.66-2.69.66m.91-2.96q.49 0 1.01-.17t.97-.48q.44-.32.79-.73.35-.42.53-.91v-3.25q-.21-.57-.58-1.05-.38-.49-.86-.84t-1.01-.56q-.54-.2-1.06-.2-.78 0-1.44.33-.66.34-1.13.93-.47.58-.73 1.34-.26.75-.26 1.56 0 .85.29 1.58.28.73.78 1.28.49.54 1.18.85.69.32 1.52.32"/></svg>